<svg width="107" height="21" viewBox="0 0 107 21" fill="none" xmlns="http://www.w3.org/2000/svg">
<path d="M34.2446 15.7337C33.4971 16.6856 32.1802 17.3144 30.7914 17.3144C27.2245 17.3144 25.1799 14.4152 25.1799 11.5665C25.1799 8.96624 27.3632 5.9623 30.7914 5.9623C32.4228 5.9623 33.6358 6.66089 34.2446 7.54297V6.2497H36.5468V17.027H34.2446V15.7337ZM31.0792 15.0152C32.8279 15.0152 34.3885 13.4633 34.3885 11.5665C34.3885 9.66969 32.8279 8.11776 31.0792 8.11776C29.1519 8.11776 27.6259 9.66969 27.6259 11.5665C27.6259 13.4633 29.1519 15.0152 31.0792 15.0152ZM39.1367 8.54885H37.6979V6.39339H39.1367V4.52533C39.2076 2.55842 40.4365 0.645508 43.3094 0.645508C43.8071 0.645508 44.5445 0.749848 45.036 0.932902L44.0288 2.94466C43.772 2.87144 43.4911 2.80188 43.0216 2.80097C42.1218 2.80188 41.5601 3.56704 41.5828 4.38163V6.2497H43.8849V8.40515H41.5828V17.027H39.2806V8.54885H39.1367ZM46.331 8.40515H45.036V6.2497H46.331V3.08836H48.6331V6.2497H50.3597V8.40515H48.6331V17.027H46.331V8.40515ZM56.8346 17.1707C53.0979 17.1707 50.9353 14.3414 50.9353 11.4228C50.9353 8.61296 53.0979 5.81861 56.8346 5.81861C59.0975 5.81861 62.4461 7.66987 62.4461 11.8539V12.285H53.5252C53.656 13.9222 55.1908 15.1098 56.8346 15.1589C58.051 15.1098 59.0975 14.516 59.8561 13.4346L61.8705 14.5841C60.5625 16.1927 58.7836 17.1707 56.8346 17.1707ZM59.7123 10.4169C59.2256 8.82228 58.0091 7.97406 56.5468 7.97406C55.0894 7.97406 53.9076 8.8562 53.5252 10.4169H59.7123ZM63.5972 6.2497H65.7554V7.39927H65.8993C66.2112 6.55381 67.0129 5.9623 67.9137 5.9623C68.4767 5.9623 68.895 6.10148 69.2087 6.2497L68.3454 8.54885C68.163 8.43272 67.7448 8.29354 67.482 8.26146C66.6643 8.29354 65.8975 8.91984 65.8993 9.98582V17.027H63.5972V6.2497ZM70.6475 13.7219C71.5241 14.559 72.8404 15.2555 74.1008 15.3026C75.3691 15.2555 76.1658 14.4894 76.1151 13.8656C76.1658 13.2009 75.6115 12.8179 74.8202 12.5724L73.5252 12.4287C70.4503 11.8429 69.619 10.8678 69.6403 9.26734C69.619 7.5249 71.1431 5.81861 73.813 5.81861C75.2998 5.81861 76.5814 6.2713 77.9856 7.25558L76.6907 8.97994C75.6115 8.01241 74.607 7.76866 73.813 7.83037C72.8404 7.76866 71.8705 8.25617 71.9425 9.12364C71.8705 9.75353 72.3901 10.1018 73.2374 10.2732L75.5396 10.7043C77.482 11.042 78.4173 11.9473 78.4173 13.5783C78.4173 15.1162 77.1357 17.1707 73.813 17.1707C72.0784 17.1707 70.5196 16.5439 69.0648 15.3026L70.6475 13.7219ZM91.0792 6.39339H93.3813V17.027H91.0792V6.39339ZM81.8705 3.08836V7.68667C82.528 6.63385 83.7119 6.00817 85.1799 5.9623C87.4375 6.00817 89.3526 7.88519 89.3526 10.5606V17.027H87.0504V10.9917C87.0545 9.10178 86.0447 8.30231 84.4605 8.26146C83.0155 8.30231 81.8664 9.24082 81.8705 10.9917V17.027H79.5684V3.08836H81.8705ZM97.4101 7.39927C98.2616 6.41203 99.4745 5.81861 100.863 5.81861C104.43 5.81861 106.475 8.71593 106.475 11.5665C106.475 14.1615 104.292 17.1636 100.863 17.1707C99.2319 17.1636 98.019 16.4654 97.4101 15.59V20.6194H95.108V6.106H97.4101V7.39927ZM100.576 8.11776C98.8268 8.11776 97.2662 9.66969 97.2662 11.5665C97.2662 13.4633 98.8268 15.0152 100.576 15.0152C102.503 15.0152 104.029 13.4633 104.029 11.5665C104.029 9.66969 102.503 8.11776 100.576 8.11776ZM92.2303 2.94466C92.9302 2.94466 93.5252 3.53887 93.5252 4.23794C93.5252 4.937 92.9302 5.53121 92.2303 5.53121C91.5303 5.53121 90.9353 4.937 90.9353 4.23794C90.9353 3.50392 91.4953 2.94466 92.2303 2.94466Z" fill="#333333"/>
<path d="M8.20144 1.50757C12.7105 1.50757 16.4029 5.04621 16.4029 9.43796C16.4029 13.1347 13.7887 16.2309 10.26 17.1158L8.20144 19.7064L6.1429 17.1158C2.61396 16.2309 0 13.1347 0 9.43796C0 5.04621 3.65973 1.50757 8.20144 1.50757ZM4.24782 7.19469L7.67867 8.86937C8.03797 9.05889 8.6261 9.05889 8.98565 8.86937L12.4163 7.19469C12.7759 7.03685 12.7759 6.75225 12.4163 6.56273L8.98565 4.88829C8.6261 4.69876 8.03797 4.69876 7.67867 4.88829L4.24782 6.56273C3.88827 6.72087 3.88827 7.00516 4.24782 7.19469ZM3.65971 12.4397L7.1884 14.1774C7.54795 14.3352 7.84186 14.1457 7.84186 13.7667V10.449C7.84186 10.0383 7.54795 9.59612 7.1884 9.40629L3.65971 7.70022C3.30016 7.54233 3.00625 7.73191 3.00625 8.11097V11.3969C3.00625 11.8077 3.30016 12.2499 3.65971 12.4397ZM8.52805 10.449V13.735C8.52805 14.1457 8.82221 14.3352 9.18151 14.1457L12.7432 12.471C13.1025 12.2815 13.3967 11.8077 13.3967 11.4286V8.11097C13.3967 7.70022 13.1025 7.5107 12.7432 7.70022L9.18151 9.40629C8.82221 9.59612 8.52805 10.0699 8.52805 10.449Z" fill="#333333"/>
</svg>
