<svg width="100" height="21" viewBox="0 0 100 21" fill="none" xmlns="http://www.w3.org/2000/svg">
<path d="M53.8847 9.13148C53.8847 7.35163 52.6092 6.15342 50.431 6.15342H45.9931V16.0415H47.7403V12.2608H50.233L51.9395 15.5064C52.0242 15.6676 52.1515 15.8027 52.3075 15.897C52.4635 15.9913 52.6424 16.0413 52.8247 16.0415H54.1643L51.922 11.935C52.5038 11.7348 53.0071 11.3556 53.3598 10.8519C53.7124 10.3483 53.8962 9.74596 53.8847 9.13148ZM50.3903 10.7892H47.7286V7.66572H50.3844C50.5978 7.65271 50.8116 7.68345 51.0127 7.75605C51.2137 7.82865 51.3977 7.94157 51.5534 8.08787C51.7092 8.23417 51.8332 8.41074 51.918 8.60672C52.0029 8.8027 52.0466 9.01395 52.0466 9.22745C52.0466 9.44095 52.0029 9.6522 51.918 9.84818C51.8332 10.0442 51.7092 10.2207 51.5534 10.367C51.3977 10.5133 51.2137 10.6263 51.0127 10.6989C50.8116 10.7715 50.5978 10.8022 50.3844 10.7892H50.3903ZM77.5947 8.08451C75.1486 8.08451 73.6809 9.88181 73.6809 12.191C73.6809 14.5001 75.1311 16.216 77.7578 16.216C78.3887 16.2351 79.0165 16.1195 79.599 15.8767C80.1816 15.634 80.7055 15.2697 81.1357 14.8084L80.7164 14.4071C80.5522 14.2501 80.3398 14.1533 80.1135 14.1321C79.8873 14.111 79.6605 14.1669 79.4701 14.2907C78.9781 14.6096 78.4025 14.7756 77.816 14.7677C77.5103 14.7954 77.2021 14.7587 76.9115 14.6598C76.6209 14.5609 76.3543 14.4021 76.1292 14.1937C75.904 13.9852 75.7252 13.7319 75.6044 13.45C75.4837 13.1681 75.4236 12.864 75.4281 12.5574H81.3629V11.9758C81.392 9.7364 79.9535 8.08451 77.5947 8.08451ZM75.4572 11.3767C75.4966 10.836 75.7395 10.3302 76.1372 9.96126C76.5348 9.59228 77.0577 9.38745 77.6005 9.38799C78.1433 9.38758 78.6661 9.59247 79.0637 9.96142C79.4613 10.3304 79.7043 10.836 79.7438 11.3767H75.4572ZM58.4217 8.08451C55.9756 8.08451 54.5079 9.88181 54.5079 12.191C54.5079 14.5001 55.9581 16.216 58.5848 16.216C59.2157 16.2351 59.8435 16.1195 60.4261 15.8767C61.0086 15.634 61.5326 15.2697 61.9628 14.8084L61.5434 14.4071C61.3793 14.2501 61.1668 14.1533 60.9405 14.1321C60.7143 14.111 60.4875 14.1669 60.2971 14.2907C59.8051 14.6096 59.2295 14.7756 58.643 14.7677C58.3373 14.7954 58.0291 14.7587 57.7385 14.6598C57.4479 14.5609 57.1813 14.4021 56.9562 14.1937C56.731 13.9852 56.5522 13.7319 56.4315 13.45C56.3107 13.1681 56.2506 12.864 56.2551 12.5574H62.1899V11.9758C62.2249 9.7364 60.7805 8.08451 58.4217 8.08451ZM56.2843 11.3534C56.3242 10.813 56.5673 10.3076 56.9649 9.9388C57.3624 9.56998 57.8849 9.365 58.4275 9.365C58.9701 9.365 59.4927 9.56998 59.8902 9.9388C60.2878 10.3076 60.5309 10.813 60.5708 11.3534H56.2843ZM67.9913 8.90464L66.1392 14.0755L64.2697 8.90464C64.2004 8.71027 64.0724 8.54215 63.9034 8.4234C63.7345 8.30466 63.5328 8.24113 63.3262 8.24155H62.1614C62.1614 8.24155 64.2348 13.4764 64.922 15.2214C65.0134 15.4553 65.1736 15.6562 65.3815 15.7974C65.5895 15.9386 65.8354 16.0136 66.0868 16.0124C66.3375 16.0137 66.5828 15.9395 66.7906 15.7994C66.9984 15.6593 67.1591 15.4599 67.2516 15.2272L70.0239 8.24737H68.9173C68.7143 8.24958 68.5168 8.31373 68.3513 8.4312C68.1858 8.54867 68.0602 8.71387 67.9913 8.90464ZM90.9383 9.00352L89.7327 13.9301L88.2476 8.78831C88.1862 8.58271 88.0602 8.40233 87.8882 8.27388C87.7161 8.14544 87.5072 8.07577 87.2924 8.0752C87.0775 8.0754 86.8685 8.14492 86.6963 8.27342C86.5242 8.40192 86.3983 8.58252 86.3373 8.78831L84.8405 13.9359C84.8405 13.9359 83.9261 10.2366 83.6174 9.00352C83.5639 8.78781 83.4396 8.59619 83.2644 8.45917C83.0892 8.32214 82.8731 8.24759 82.6506 8.24737H81.6663C81.6663 8.24737 83.0932 13.4008 83.565 15.1167C83.6361 15.3726 83.7877 15.599 83.9974 15.7624C84.2071 15.9258 84.4639 16.0175 84.7298 16.024C84.9607 16.0239 85.1854 15.9499 85.3709 15.8127C85.5565 15.6755 85.6931 15.4825 85.7607 15.2621L87.2691 10.3588C87.2691 10.3588 88.3582 14.0232 88.7193 15.2505C88.786 15.4719 88.9222 15.6661 89.1078 15.8043C89.2934 15.9426 89.5187 16.0176 89.7502 16.0182C90.0154 16.0121 90.2715 15.9212 90.4812 15.7589C90.6908 15.5967 90.8429 15.3716 90.915 15.1167L92.8253 8.24155H91.9284C91.7014 8.23777 91.4797 8.31109 91.2999 8.44952C91.12 8.58795 90.9925 8.78328 90.9383 9.00352ZM96.901 11.2778C95.876 11.0975 95.049 10.952 95.049 10.2715C95.049 9.59098 95.7595 9.39904 96.4992 9.39904C97.1155 9.39246 97.7211 9.55981 98.2464 9.88181C98.437 10.0022 98.6621 10.0561 98.8866 10.035C99.111 10.014 99.3222 9.91917 99.4869 9.76548L99.8597 9.42812C99.2736 8.84623 98.5464 8.42616 97.7491 8.20901C96.9518 7.99185 96.1118 7.98503 95.3111 8.1892C94.774 8.30121 94.2938 8.59891 93.955 9.02984C93.6162 9.46078 93.4405 9.9973 93.459 10.5449C93.5289 12.0397 94.8044 12.4818 96.371 12.7552C97.6291 12.9646 98.3396 13.1158 98.3396 13.8254C98.3396 14.6572 97.3728 14.9887 96.0507 14.8084C95.5495 14.7055 95.0826 14.4774 94.6937 14.1453C94.5253 14.0112 94.3179 13.9353 94.1026 13.929C93.8873 13.9227 93.6757 13.9864 93.4998 14.1104L93.0164 14.4478C93.4193 15.0234 93.9635 15.4861 94.5967 15.7916C95.23 16.0971 95.9311 16.2353 96.6331 16.1927C98.7123 16.1927 99.9587 15.1748 99.9587 13.6451C99.9878 12.0048 98.5609 11.5744 96.901 11.2778ZM71.6366 7.25275C71.9085 7.25275 72.1692 7.14489 72.3614 6.95291C72.5537 6.76093 72.6617 6.50054 72.6617 6.22904C72.6617 5.95754 72.5537 5.69715 72.3614 5.50517C72.1692 5.31319 71.9085 5.20533 71.6366 5.20533C71.3648 5.20533 71.104 5.31319 70.9118 5.50517C70.7196 5.69715 70.6116 5.95754 70.6116 6.22904C70.6116 6.50054 70.7196 6.76093 70.9118 6.95291C71.104 7.14489 71.3648 7.25275 71.6366 7.25275ZM72.452 8.24155H70.8212V16.0182H72.452V8.24155ZM32.3879 5.97893C32.0887 5.97827 31.7963 6.06788 31.549 6.23601C31.3016 6.40415 31.1109 6.64298 31.0018 6.9212L27.5073 16.0066H28.6721C28.8749 16.0073 29.0731 15.9465 29.2405 15.8322C29.408 15.718 29.5367 15.5557 29.6098 15.3668L30.3029 13.4997H34.3798L35.0728 15.3668C35.1444 15.5588 35.2733 15.7242 35.442 15.8407C35.6107 15.9572 35.8112 16.0192 36.0164 16.0182H37.2627C37.2627 16.0182 34.636 9.20128 33.7682 6.93284C33.6607 6.65381 33.4715 6.4136 33.2253 6.24346C32.9791 6.07333 32.6873 5.98115 32.3879 5.97893ZM30.7747 12.0456L32.3763 7.67735L33.9313 12.0456H30.7747ZM39.7205 5.44381H38.0897V16.0182H39.7205V5.44381ZM42.4048 7.2382C42.5396 7.21734 42.6688 7.16982 42.785 7.09845C42.9011 7.02708 43.0018 6.93327 43.0812 6.82254C43.1606 6.71181 43.2171 6.58637 43.2473 6.45357C43.2775 6.32077 43.2809 6.18328 43.2573 6.04915C43.2336 5.91502 43.1834 5.78695 43.1096 5.67244C43.0358 5.55792 42.9399 5.45927 42.8274 5.38226C42.7149 5.30525 42.5882 5.25143 42.4546 5.22394C42.3211 5.19646 42.1833 5.19587 42.0496 5.2222C41.7864 5.274 41.554 5.42677 41.4023 5.64772C41.2506 5.86867 41.1917 6.14019 41.2382 6.40403C41.2847 6.66786 41.4329 6.90299 41.651 7.05894C41.8691 7.21489 42.1397 7.27925 42.4048 7.2382ZM43.0402 8.24155H41.4095V16.0182H43.0402V8.24155Z" fill="#333333"/>
<path d="M5.21258 11.7029H3.98369C2.92602 11.6968 1.91368 11.2732 1.16742 10.5246C0.421163 9.77595 0.00151947 8.76297 0 7.70654H6.89575L5.21258 11.7029Z" fill="#333333"/>
<path d="M2.56857 17.9085L8.11313 4.87364C8.19051 4.694 8.31891 4.54095 8.48246 4.43341C8.646 4.32587 8.83752 4.26855 9.03334 4.26855C9.22915 4.26855 9.42067 4.32587 9.58422 4.43341C9.74776 4.54095 9.87616 4.694 9.95355 4.87364L11.2057 7.82262L7.15797 17.3384C7.07667 17.5313 7.05796 17.7447 7.10447 17.9487C7.15097 18.1527 7.26036 18.337 7.41723 18.4757C7.5741 18.6144 7.77056 18.7005 7.97897 18.7219C8.18738 18.7432 8.39725 18.6988 8.57906 18.5948L5.42239 20.4095C5.05962 20.6195 4.64003 20.7105 4.22273 20.6697C3.80544 20.629 3.41146 20.4585 3.09632 20.1823C2.78117 19.9061 2.56073 19.5381 2.46605 19.1302C2.37138 18.7223 2.40723 18.2949 2.56857 17.9085Z" fill="#333333"/>
<path d="M4.24585 13.9707L8.11306 4.87364C8.19044 4.694 8.31884 4.54095 8.48239 4.43341C8.64594 4.32587 8.83746 4.26855 9.03327 4.26855C9.22908 4.26855 9.4206 4.32587 9.58415 4.43341C9.7477 4.54095 9.8761 4.694 9.95348 4.87364L11.2057 7.82262L8.59064 13.9765L4.24585 13.9707Z" fill="#333333"/>
<path d="M11.2057 7.82213L16.6745 20.6883C17.1576 20.4832 17.5955 20.1852 17.9631 19.8111C18.3308 19.4371 18.6211 18.9943 18.8174 18.5082C19.0138 18.0221 19.1123 17.5021 19.1074 16.9779C19.1024 16.4538 18.9941 15.9358 18.7887 15.4534L16.2785 9.53801L13.0461 1.93001C12.8922 1.5697 12.6357 1.26245 12.3086 1.04635C11.9814 0.830252 11.5979 0.714815 11.2057 0.714356C10.8133 0.714061 10.4295 0.829195 10.1022 1.04539C9.77487 1.26158 9.51858 1.56925 9.36527 1.93001L8.11309 4.87316C8.19047 4.69352 8.31887 4.54047 8.48242 4.43293C8.64597 4.32539 8.83749 4.26807 9.0333 4.26807C9.22911 4.26807 9.42063 4.32539 9.58418 4.43293C9.74773 4.54047 9.87613 4.69352 9.95351 4.87316L11.2057 7.82213Z" fill="#333333"/>
<path d="M21.7298 8.70704C21.8613 8.93419 21.9467 9.18502 21.981 9.44518C22.0153 9.70533 21.9979 9.96969 21.9297 10.2231C21.8615 10.4765 21.744 10.714 21.5837 10.922C21.4235 11.1299 21.2237 11.3043 20.9959 11.435L8.57892 18.5951C8.39712 18.6991 8.18725 18.7435 7.97884 18.7222C7.77043 18.7008 7.57397 18.6147 7.4171 18.4761C7.26023 18.3374 7.15084 18.153 7.10434 17.949C7.05783 17.745 7.07654 17.5316 7.15784 17.3387L8.59057 13.9768L16.2784 9.5388L15.498 7.7066H20C20.3539 7.70386 20.7021 7.79505 21.0091 7.97083C21.3161 8.14661 21.5708 8.40068 21.7472 8.70704H21.7298Z" fill="#333333"/>
<path d="M17.8569 13.2442L8.57906 18.5954C8.39729 18.6998 8.18729 18.7445 7.97869 18.7233C7.77009 18.7021 7.57341 18.616 7.41641 18.4772C7.25941 18.3384 7.15001 18.1539 7.10364 17.9497C7.05728 17.7455 7.07628 17.5319 7.15798 17.339L8.59071 13.9771L16.2785 9.53906L17.8569 13.2442Z" fill="#333333"/>
<path d="M0 7.70654C0.00151947 8.76297 0.421163 9.77595 1.16742 10.5246C1.91368 11.2732 2.92602 11.6968 3.98369 11.7029H5.21258L6.89575 7.70654H0Z" fill="#333333"/>
<path d="M17.2218 7.70654H15.4746L16.255 9.53895L17.5014 8.82343C17.6308 8.77034 17.7368 8.67249 17.7999 8.54778C17.863 8.42306 17.8791 8.27982 17.8452 8.14425C17.8112 8.00867 17.7296 7.88983 17.6151 7.80946C17.5006 7.72908 17.3611 7.69255 17.2218 7.70654Z" fill="#333333"/>
</svg>
