<svg width="67" height="21" viewBox="0 0 67 21" fill="none" xmlns="http://www.w3.org/2000/svg">
<path d="M6.05267 7.33003V6.88543C4.56749 6.88543 2.99945 7.20237 2.99945 8.95105C2.99945 9.83694 3.45895 10.4367 4.24683 10.4367C4.82534 10.4367 5.34215 10.0824 5.66832 9.5057C6.07295 8.79588 6.05267 8.12898 6.05267 7.33003ZM8.12408 12.3296C7.98832 12.4506 7.79185 12.4594 7.63868 12.3791C6.95702 11.8134 6.8357 11.5504 6.46017 11.0112C5.33333 12.1601 4.53554 12.5034 3.07438 12.5034C1.34656 12.5034 0 11.4382 0 9.30651C0 7.64146 0.904683 6.50796 2.19063 5.95331C3.30579 5.46359 4.86281 5.37665 6.05267 5.24129V4.97608C6.05267 4.48746 6.09014 3.9108 5.8043 3.48931C5.55262 3.11185 5.07328 2.95558 4.65124 2.95558C3.86887 2.95558 3.16915 3.35725 2.99945 4.18812C2.96419 4.37301 2.82865 4.55459 2.64353 4.56339L0.650138 4.3499C0.482645 4.31248 0.297521 4.17602 0.343802 3.91961C0.803306 1.50733 2.98512 0.781006 4.93774 0.781006C5.93719 0.781006 7.24298 1.04622 8.03163 1.80226C9.03107 2.73328 8.93587 3.97683 8.93587 5.33043V8.52736C8.93587 9.48809 9.33455 9.90958 9.71008 10.429C9.84286 10.6128 9.87174 10.8351 9.70457 10.9737C9.28562 11.3226 8.54028 11.9719 8.12992 12.3351H8.12441L8.12408 12.3296ZM32.9806 7.33003V6.88543C31.4919 6.88543 29.9239 7.20237 29.9239 8.95105C29.9239 9.83694 30.3856 10.4367 31.1745 10.4367C31.7498 10.4367 32.2699 10.0824 32.596 9.5057C33.0004 8.79588 32.9806 8.12898 32.9806 7.33003ZM35.0511 12.3296C34.9156 12.4506 34.7195 12.4594 34.5663 12.3791C33.8842 11.8134 33.7597 11.5504 33.3872 11.0112C32.261 12.1601 31.461 12.5034 30.0021 12.5034C28.271 12.5034 26.9277 11.4382 26.9277 9.30651C26.9277 7.64146 27.8291 6.50796 29.1172 5.95331C30.2324 5.46359 31.7894 5.37665 32.9806 5.24129V4.97608C32.9806 4.48746 33.0181 3.9108 32.7283 3.48931C32.4803 3.11185 32.001 2.95558 31.5756 2.95558C30.7933 2.95558 30.0969 3.35725 29.9261 4.18812C29.8919 4.37301 29.7564 4.55459 29.5679 4.56339L27.5779 4.3499C27.4104 4.31248 27.2219 4.17602 27.2715 3.91961C27.7277 1.50733 29.9117 0.781006 31.8655 0.781006C32.8649 0.781006 34.1707 1.04622 34.9586 1.80226C35.9591 2.73328 35.8633 3.97683 35.8633 5.33043V8.52736C35.8633 9.48809 36.2621 9.90958 36.6379 10.429C36.7679 10.6128 36.7966 10.8351 36.6269 10.9737C36.2082 11.3226 35.4621 11.9719 35.0522 12.3351L35.0511 12.3296ZM60.347 12.3582H58.3018C58.0958 12.3439 57.9316 12.1799 57.9316 11.9774V1.4468C57.9492 1.25422 58.12 1.10345 58.3283 1.10345H60.2313C60.4109 1.11445 60.5586 1.23331 60.5982 1.39838V3.0084H60.6357C61.2109 1.56786 62.0164 0.88115 63.4357 0.88115C64.3569 0.88115 65.255 1.2135 65.8335 2.1225C66.3701 2.96438 66.3701 4.38071 66.3701 5.39977V12.0269C66.347 12.2118 66.1773 12.3582 65.9745 12.3582H63.915C63.7277 12.3439 63.5712 12.2052 63.5514 12.0269V6.30877C63.5514 5.15766 63.6836 3.47281 62.2654 3.47281C61.7652 3.47281 61.3068 3.80735 61.0776 4.31468C60.7889 4.95847 60.7514 5.59895 60.7514 6.30877V11.9774C60.7514 12.1887 60.5696 12.3582 60.3503 12.3582H60.347ZM51.697 0.88115C54.7449 0.88115 56.3945 3.49592 56.3945 6.8194C56.3945 10.0306 54.5719 12.5783 51.697 12.5783C48.7041 12.5783 47.0755 9.9635 47.0755 6.70715C47.0755 3.42879 48.7251 0.88115 51.697 0.88115ZM51.7146 3.03151C50.2006 3.03151 50.1058 5.09053 50.1058 6.3748C50.1058 7.66127 50.086 10.4081 51.697 10.4081C53.2893 10.4081 53.3642 8.19281 53.3642 6.84251C53.3642 5.95331 53.3267 4.89244 53.0578 4.04946C52.8275 3.31654 52.368 3.03151 51.7146 3.03151ZM13.7344 12.3582H11.6804C11.4843 12.3439 11.3278 12.1975 11.3135 12.0093V1.48202C11.3135 1.27072 11.4898 1.10345 11.7091 1.10345H13.6242C13.8237 1.11445 13.9824 1.26522 13.9967 1.45561V2.83232H14.0342C14.5344 1.50183 15.4733 0.88115 16.7383 0.88115C18.0242 0.88115 18.8275 1.50183 19.405 2.83232C19.9019 1.50183 21.0314 0.88115 22.2424 0.88115C23.103 0.88115 24.0452 1.23661 24.6193 2.03226C25.2694 2.91816 25.1372 4.20573 25.1372 5.33374V11.9774C25.1372 12.1887 24.9609 12.3582 24.7405 12.3582H22.6898C22.4848 12.3439 22.3196 12.1799 22.3196 11.9774V6.39791C22.3196 5.95331 22.3603 4.84622 22.2623 4.42473C22.1091 3.71711 21.6496 3.51903 21.0545 3.51903C20.5576 3.51903 20.0375 3.85027 19.827 4.38071C19.6165 4.91225 19.6364 5.80034 19.6364 6.39791V11.9774C19.6364 12.1887 19.4601 12.3582 19.2408 12.3582H17.1901C16.9818 12.3439 16.8198 12.1799 16.8198 11.9774V6.39791C16.8198 5.22369 17.0127 3.49592 15.5537 3.49592C14.0782 3.49592 14.1355 5.18077 14.1355 6.39791V11.9774C14.1355 12.1887 13.9592 12.3582 13.7399 12.3582H13.7344ZM38.3625 2.96218V1.45561C38.3625 1.22781 38.5355 1.07484 38.7438 1.07484H45.4953C45.7113 1.07484 45.8854 1.23111 45.8854 1.45561V2.74538C45.8854 2.96218 45.7003 3.245 45.3763 3.6918L41.8777 8.68033C43.178 8.64841 44.5499 8.8421 45.7289 9.5057C45.9945 9.65536 46.0672 9.87436 46.0871 10.0912V11.6979C46.0871 11.9169 45.8446 12.1744 45.5901 12.0412C43.5129 10.9539 40.7537 10.8351 38.4573 12.0533C38.2237 12.1799 37.978 11.9257 37.978 11.7067V10.1803C37.978 9.93489 37.978 9.5167 38.227 9.14473L42.2799 3.33965H38.7526C38.5355 3.33965 38.3625 3.18668 38.3625 2.96218ZM42.7769 14.5691C42.2854 13.9396 39.5174 14.2719 38.2755 14.4183C37.8975 14.4645 37.8391 14.1355 38.1807 13.8989C40.3846 12.3505 44.0011 12.7973 44.4231 13.3167C44.8452 13.8383 44.3129 17.46 42.2424 19.1878C41.924 19.453 41.6209 19.3122 41.762 18.96C42.2281 17.8001 43.2705 15.2007 42.7769 14.5691ZM41.1736 16.4003C41.8116 15.9271 41.2661 15.2238 40.6127 15.5001C36.2909 17.3324 31.5912 18.215 27.3179 18.215C20.9829 18.215 14.8496 16.4817 9.88914 13.5995C9.45587 13.3453 9.13212 13.7899 9.49355 14.1157C14.0893 18.2612 20.1653 20.7549 26.9135 20.7549C31.7267 20.7549 37.3168 19.2395 41.1736 16.4003Z" fill="#333333"/>
</svg>
