<svg width="48" height="21" viewBox="0 0 48 21" fill="none" xmlns="http://www.w3.org/2000/svg">
<path d="M13.8281 15.4881C13.0127 16.5898 11.9576 17.7394 10.5667 18.6015C9.22376 19.4637 7.68899 20.1343 5.86645 20.1343C4.18779 20.1343 2.79691 19.2721 2.02952 18.5536C0.87844 17.452 0.254939 15.8713 0.0630924 14.3864C-0.464485 9.78811 2.36525 3.75283 6.72976 1.07048C7.73695 0.447795 8.84007 0.1604 9.89523 0.1604C12.0055 0.1604 13.5883 1.64527 13.7801 3.46544C13.972 5.094 13.3485 6.48308 11.5259 7.39316C10.6147 7.87215 10.135 7.82425 9.99115 7.63265C9.89523 7.48896 9.94319 7.24946 10.135 7.10576C11.8137 5.71669 11.8617 4.56711 11.6698 2.93855C11.5259 1.88477 10.8545 1.21418 10.0871 1.21418C6.77772 1.21418 1.98156 8.63853 2.65302 14.0032C2.89283 16.1108 4.18779 18.5536 6.87364 18.5536C7.73695 18.5536 8.69619 18.3141 9.51153 17.883C11.382 16.9251 12.1974 16.2545 13.3005 14.7217C13.4444 14.5301 13.5883 14.2906 13.7322 14.099C13.8281 13.9074 14.0199 13.8595 14.1638 13.8595C14.3077 13.8595 14.4995 14.0032 14.4995 14.2427C14.4995 14.3864 14.4516 14.6738 14.2597 14.9133C14.1638 15.0091 13.972 15.2965 13.8281 15.4881Z" fill="#333333"/>
<path d="M18.8642 13.4898C18.0489 13.4898 17.5692 13.0587 17.3774 12.388C16.8498 13.1066 16.0824 13.4898 15.315 13.4898C14.0201 13.4898 12.821 12.388 12.6292 10.9509C12.3414 8.41193 14.4997 5.15442 17.7611 5.15442C19.152 5.15442 20.303 5.72927 20.4469 6.83108C20.6388 8.22031 19.4397 8.50774 19.0081 8.50774C18.6244 8.50774 18.0009 8.41193 17.9529 8.02869C17.905 7.64546 18.7683 7.88498 18.6724 6.97479C18.6244 6.39994 18.0489 6.20832 17.4733 6.20832C15.4589 6.20832 14.3558 8.98678 14.5956 10.7113C14.6915 11.4778 15.0752 12.2443 15.7947 12.2443C16.3702 12.2443 17.2335 11.4299 17.5213 10.1844C17.7131 9.37002 18.5285 8.79516 19.104 8.79516C19.3918 8.79516 19.6316 8.93888 19.6795 9.22631C19.6795 9.32212 19.6795 9.46583 19.6316 9.65745C19.5836 10.0407 19.2959 11.1904 19.2959 11.4778C19.2959 11.7173 19.4397 12.0048 19.8234 12.0048C20.2551 12.0048 22.2215 10.8551 23.3246 9.32211C23.4206 9.1784 23.6124 9.08259 23.7563 9.08259C23.9002 9.08259 24.092 9.1784 24.092 9.37002C24.14 9.56164 24.0441 9.80116 23.8042 10.1365C22.5572 11.9569 19.8234 13.4898 18.8642 13.4898Z" fill="#333333"/>
<path d="M46.3461 12.4351C46.442 13.2494 46.8257 13.7762 47.1614 14.0636C47.3053 14.1594 47.3533 14.3031 47.3533 14.3989C47.4012 14.6384 47.2094 14.83 46.9216 14.83C46.8257 14.83 46.7298 14.83 46.6338 14.7821C45.195 14.2073 44.6195 13.2494 44.4276 12.3393C43.9 13.0099 43.1326 13.441 42.4132 13.441C41.1183 13.441 39.9192 12.3393 39.7274 10.9023C39.4396 8.41155 41.6938 5.15442 44.9072 5.15442C46.2501 5.15442 47.4492 5.68131 47.5931 6.78299C47.7849 8.17206 46.5379 8.45945 46.1542 8.45945C45.7226 8.45945 45.0991 8.36366 45.0511 7.98046C45.0031 7.64517 45.9144 7.83677 45.8185 6.97458C45.7705 6.39979 45.147 6.2082 44.6195 6.2082C42.7489 6.2082 41.5019 8.65105 41.7418 10.6628C41.8377 11.4771 42.2214 12.2435 42.9408 12.2435C43.5163 12.2435 44.3796 11.4292 44.7154 10.1838C44.9072 9.36953 45.7226 8.79475 46.2981 8.79475C46.5859 8.79475 46.8257 8.93844 46.8736 9.27374C46.8736 9.41744 46.8257 9.80063 46.5379 11.0939C46.2981 11.5729 46.2981 12.0519 46.3461 12.4351Z" fill="#333333"/>
<path d="M29.0799 11.9569C29.5115 11.9569 30.9504 11.4299 32.1014 9.84906C32.2453 9.70535 32.3892 9.60954 32.5331 9.60954C32.7249 9.60954 32.8688 9.70535 32.9168 9.89697C32.9168 10.0407 32.8209 10.3281 32.5811 10.6634C31.2861 12.4838 29.0799 13.394 28.1206 13.394C27.1134 13.394 26.5858 12.7712 26.4899 11.8611C26.442 11.5736 26.442 11.1904 26.5379 10.8072C26.8736 8.74726 27.641 7.50174 27.593 7.11851C27.593 7.0227 27.4971 6.97479 27.4492 6.97479C26.8257 6.97479 24.5715 9.27421 24.2357 10.8072L23.948 12.0048C23.7561 12.8671 22.9408 13.394 22.3652 13.394C22.0775 13.394 21.8856 13.2503 21.8376 12.9629C21.8376 12.8671 21.8376 12.7233 21.8856 12.5317C21.8856 12.5317 22.9887 6.87898 23.0367 6.59156C23.1806 5.92089 23.4204 5.25023 24.7633 5.25023C25.0511 5.25023 25.2429 5.39394 25.2909 5.72927C25.2909 5.82508 25.2909 5.9688 25.2429 6.16041L24.8592 7.88498C26.0583 6.30413 27.8808 5.15442 29.0319 5.15442C29.5115 5.15442 29.8472 5.39394 29.9432 5.92089C29.9911 6.20832 29.8952 6.68736 29.7034 7.21431C29.3197 8.31612 28.888 9.89697 28.5523 11.2862C28.4564 11.4778 28.5523 11.9569 29.0799 11.9569Z" fill="#333333"/>
<path d="M36.6578 7.11828C36.6578 7.88467 37.0415 8.69895 37.5211 9.22584C37.7129 8.69895 37.8089 8.17206 37.8089 7.64517C37.8089 6.63929 37.4252 6.2082 37.1374 6.2082C36.8017 6.2082 36.6578 6.68719 36.6578 7.11828ZM38.3844 11.2376C38.2405 11.2376 38.0966 11.2376 37.9048 11.1897C36.6578 13.0099 35.3628 14.2552 34.3556 14.7821C33.924 15.0216 33.5403 15.1174 33.2525 15.1174C33.0127 15.1174 32.7729 15.0695 32.677 14.8779C32.2453 14.1115 32.0535 12.6267 32.0535 11.046C32.0535 9.89643 32.1494 8.93844 32.3412 8.26786C32.581 7.54937 33.4923 6.87879 34.0679 6.87879C34.3556 6.87879 34.5954 7.02248 34.5954 7.35778C34.5954 7.45357 34.5475 7.59727 34.4995 7.74097C34.0679 8.93844 33.876 10.088 33.876 11.2376C33.876 11.8603 34.0199 12.9141 34.1638 13.441C34.2117 13.5368 34.2117 13.6805 34.3077 13.6805C34.4995 13.6805 35.7945 12.3872 36.7537 10.8544C35.9384 10.3275 35.4587 9.36954 35.4587 8.17206C35.4587 6.1603 36.6578 5.15442 37.8089 5.15442C38.7201 5.15442 39.5355 5.82501 39.5355 7.16618C39.5355 7.98046 39.1998 8.93844 38.7201 9.84853C38.7201 9.84853 38.912 9.89642 39.0079 9.89642C39.7273 9.89642 40.3029 9.56113 40.5906 9.22584C40.8304 8.98634 41.0223 8.79475 41.2141 8.79475C41.358 8.79475 41.406 8.89055 41.406 9.03424C41.406 9.13004 41.358 9.27374 41.3101 9.41743C40.6386 10.5191 39.3916 11.2376 38.3844 11.2376Z" fill="#333333"/>
</svg>
