<svg width="71" height="11" viewBox="0 0 71 11" fill="none" xmlns="http://www.w3.org/2000/svg">
<path d="M26.3301 10.6153H32.8241L35.2912 7.28635H28.7971L26.3301 10.6153ZM0 8.5981V9.30358H9.04958L9.56955 8.5981H0ZM19.128 7.28635C18.1655 7.28635 18.4642 6.88952 18.6191 6.68008C18.9289 6.2612 19.4599 5.53367 19.7697 5.12582C20.0795 4.71796 20.0795 4.47545 19.4599 4.47545H13.8178L9.27084 10.6264H20.345C24.0068 10.6264 26.0424 8.14615 26.673 7.28635H19.128ZM54.2532 6.52576L58.601 0.639404H51.7198L47.372 6.52576H54.2532ZM10.5431 7.28635H0V7.99183H10.0231L10.5431 7.28635ZM22.8231 4.3542C22.5133 4.77308 21.9934 5.5006 21.6836 5.91948C21.5287 6.13995 21.23 6.52576 22.1925 6.52576H27.2372C27.2372 6.52576 28.0449 5.42344 28.7308 4.4975C29.6601 3.24086 28.8082 0.639404 25.5004 0.639404H12.457L10.2001 3.70383H22.5244C23.1439 3.70383 23.1329 3.94634 22.8231 4.3542ZM0 10.6153H8.0871L8.60706 9.90985H0V10.6153ZM35.7337 10.6153H42.2277L44.6948 7.28635H38.2007C38.1897 7.28635 35.7337 10.6153 35.7337 10.6153ZM60.2937 10.6264H70.8036V9.92088H60.8136L60.2937 10.6264ZM62.7607 7.28635L62.2408 7.99183H70.8036V7.28635H62.7607ZM61.2672 9.30358H70.8036V8.5981H61.7872L61.2672 9.30358ZM43.1017 0.639404L40.6125 4.01248H37.714L40.2032 0.639404H33.7091L29.3614 6.52576H45.2479L49.5957 0.639404H43.1017ZM46.8078 7.28635C46.8078 7.28635 46.3321 7.93672 46.0998 8.24536C45.2811 9.34768 46.0002 10.6264 48.6664 10.6264H59.0989L61.5659 7.28635H46.8078Z" fill="#333333"/>
</svg>
