<svg width="50" height="21" viewBox="0 0 50 21" fill="none" xmlns="http://www.w3.org/2000/svg">
<path d="M31.5867 11.3715C29.3177 11.4415 27.9064 11.8543 27.9064 13.3416C27.9064 14.3072 28.6784 15.3507 30.6355 15.3507C33.2632 15.3507 34.6589 13.9178 34.6589 11.5817V11.3247C33.7388 11.3247 32.6082 11.3325 31.5867 11.3715ZM37.1618 14.4629C37.1618 15.1871 37.1852 15.9113 37.2398 16.5499H34.9162C34.8538 16.0126 34.8304 15.4908 34.8304 14.9769C33.5751 16.5187 32.078 16.9626 30.0039 16.9626C26.924 16.9626 25.2788 15.3351 25.2788 13.4584C25.2788 10.7329 27.5244 9.7751 31.4074 9.68944C32.4756 9.66608 33.6686 9.6583 34.6589 9.6583V9.39354C34.6589 7.57135 33.4893 6.82379 31.462 6.82379C29.9571 6.82379 28.8421 7.44676 28.7329 8.52138H26.1053C26.386 5.84262 29.2008 5.16514 31.6803 5.16514C34.6511 5.16514 37.1618 6.2164 37.1618 9.3546V14.4629ZM9.94932 10.0399C9.76998 5.78032 3.12671 5.63237 2.58869 10.0399H9.94932ZM2.54191 11.7063C2.81481 16.2462 8.71735 16.1761 9.65302 13.3883H12.2339C11.7349 16.0671 8.88109 16.9782 6.43275 16.9782C1.97271 16.9782 0 14.5252 0 11.2157C0 7.57135 2.04289 5.17293 6.47174 5.17293C10.0039 5.17293 12.5848 7.01847 12.5848 11.0444V11.7063H2.54191ZM18.9942 15.265C21.3177 15.265 22.9084 13.5908 22.9084 11.0755C22.9084 8.55253 21.3177 6.88609 18.9942 6.88609C16.6862 6.88609 15.0799 8.55253 15.0799 11.0755C15.0799 13.5908 16.6862 15.265 18.9942 15.265ZM12.5848 0.781006H15.0877V7.05741C16.3119 5.60122 18.0039 5.17293 19.6647 5.17293C22.4483 5.17293 25.5439 7.04962 25.5439 11.1067C25.5439 14.5019 23.0877 16.9782 19.6179 16.9782C17.8012 16.9782 16.1014 16.3318 15.0409 15.0392C15.0409 15.5531 15.0097 16.0671 14.9552 16.5577H12.499C12.538 15.7634 12.5848 14.7822 12.5848 13.9801V0.781006ZM49.8947 5.58564L42.1598 20.7549H39.3606L41.5829 16.5421L35.7661 5.58564H38.6901L42.9708 14.1437L47.2437 5.58564H49.8947Z" fill="#333333"/>
</svg>
