<svg width="43" height="21" viewBox="0 0 43 21" fill="none" xmlns="http://www.w3.org/2000/svg">
<path fill-rule="evenodd" clip-rule="evenodd" d="M38.7202 3.5543L38.6292 3.47628L38.5383 3.4174C37.4389 2.81046 36.2898 3.8465 36.9295 4.9608L36.9942 5.04536L37.0787 5.13016V5.14955C37.3685 5.42479 37.7242 5.48851 38.1101 5.4231L38.2202 5.39717L38.3372 5.36446L38.3825 5.33829L38.4344 5.31891L38.5383 5.27336L38.6292 5.21472L38.7202 5.14955L38.7915 5.05845L38.8565 4.96734L38.9148 4.86316L38.9667 4.75243V3.94512L38.9148 3.82785L38.8565 3.7302L38.7915 3.63232L38.7202 3.5543Z" fill="#333333"/>
<path d="M37.0205 14.8517H38.9151V6.58228H37.0205V14.8517Z" fill="#333333"/>
<path fill-rule="evenodd" clip-rule="evenodd" d="M29.28 7.27252L29.585 8.31437L29.7926 8.19056L30.0131 8.08638C30.5827 7.82955 31.7306 7.71591 32.323 7.95626L32.4593 8.02774L32.5825 8.11254C33.04 8.44569 33.1378 9.01459 33.1016 9.54497L33.0885 9.58398L33.0497 9.66224H33.0301V9.66878L33.0172 9.68163L32.9913 9.70125L32.9263 9.71433C32.4639 9.70319 32.0011 9.74293 31.5445 9.81198L31.3369 9.85099L31.1423 9.90308C30.7367 9.98691 30.2947 10.1757 29.9352 10.3848L29.7992 10.4826L29.6628 10.5737L29.5396 10.6779C28.7056 11.3815 28.5193 12.7827 28.9363 13.7512L29.0336 13.9401L29.1437 14.1158L29.28 14.2852L29.4358 14.4477C30.1181 15.0721 31.1166 15.1291 31.9402 14.793L32.0049 14.7603L32.0765 14.7346L32.1932 14.6629C32.4115 14.5238 32.5735 14.3942 32.7511 14.2006L32.8484 14.0833L32.9457 13.9661L32.9653 13.9271L32.9978 13.9074L33.0366 13.8946H33.1211L33.1858 13.9011L33.2508 13.9271L33.2768 13.9857L33.3025 14.0572L33.426 14.8061H34.8599L34.8339 14.6171L34.8145 14.4284L34.8014 14.2135C34.7097 12.6725 34.8252 11.1262 34.756 9.58398L34.7366 9.38869L34.7235 9.20625C34.6525 8.72433 34.5773 8.38973 34.3602 7.94972L34.2888 7.81937L34.2175 7.7021L34.1331 7.58483C33.2409 6.39421 31.0099 6.51705 29.8249 6.99897L29.5459 7.12278L29.28 7.27252ZM31.0514 11.1337L31.2136 11.036L31.4082 10.9515L31.6158 10.8798L31.856 10.8274L32.1025 10.7819L32.3814 10.7625L32.6733 10.7496L32.9978 10.7562L33.0235 10.7496L33.0626 10.7562L33.0885 10.7756L33.1211 10.808L33.1599 10.8536L33.173 10.8863L33.1793 10.9319V12.0648L33.173 12.1297V12.2015L33.1599 12.3384C33.1104 12.7255 32.9214 13.087 32.6473 13.3671L32.5954 13.4127L32.55 13.4648L32.4333 13.5365C30.7413 14.5226 29.6211 12.6713 30.7983 11.303L30.8762 11.2442L31.0514 11.1337Z" fill="#333333"/>
<path fill-rule="evenodd" clip-rule="evenodd" d="M15.8047 14.6691H26.7109V6.53662H15.8047V14.6691ZM25.1474 13.0022V14.5843H17.4914V13.087H17.5044L17.5433 13.0739L20.4176 10.7622L21.287 11.498L22.0589 10.8208L25.1474 13.0022ZM25.1474 12.7221L22.2212 10.6776L25.1474 8.14471V12.7221ZM24.6608 6.62118L24.2649 6.99892C23.2834 7.94797 22.3117 8.97359 21.2805 9.85723L21.248 9.88316L17.952 6.6081L24.6608 6.62118ZM20.2488 10.619L17.4914 12.8197L17.4979 8.28161L20.2488 10.619Z" fill="#333333"/>
<path fill-rule="evenodd" clip-rule="evenodd" d="M11.8402 3.56697L13.4492 1.9719L13.3585 1.90019L13.2675 1.83527L13.2156 1.79602C11.9828 0.851429 9.77242 0.345582 8.27836 0.305124L7.88902 0.298584H7.64887C4.53583 0.416082 2.34702 1.61408 0.829925 4.35481L0.674189 4.67363L0.538101 5.00578L0.408321 5.33138L0.298189 5.66982C-0.422518 8.40668 0.177141 10.7845 1.94604 12.9683L2.18595 13.2418L2.30943 13.3653C4.27966 15.2489 7.28888 15.3492 9.82894 14.941L10.2377 14.8759L10.653 14.8041L13.4492 14.1401V11.6857L13.4558 11.1842L13.4883 10.7157L13.5077 10.6115L13.5465 10.5267L13.5984 10.4487L13.67 10.3901L14.1954 9.88207H10.0756L8.49887 10.7482L11.4445 10.5854V13.8341L11.224 13.9124L11.1071 13.9514H11.0877L11.0746 13.9579C10.7457 14.0851 10.2253 14.2549 9.8743 14.277H9.86144L9.85489 14.2833L9.81584 14.2964L9.62129 14.3097L9.51747 14.316L9.42019 14.3291H9.30982L9.20623 14.3354L8.98549 14.3484L8.58329 14.3225L8.20049 14.2898L7.8177 14.2377L7.46087 14.1728L7.10403 14.0817L6.7666 13.9841C4.16953 13.1941 2.307 10.3259 2.14059 7.68837L2.12118 7.33006L2.11463 6.97199V6.63355L2.13404 6.30794C2.23277 4.1014 3.66424 1.89753 5.83873 1.25577L6.09174 1.18406L6.35785 1.12543C8.43313 0.762763 10.0681 1.25165 11.5158 2.77258L11.5418 2.80529L11.5743 2.8443L11.6391 2.9223L11.1525 3.72977L11.8402 3.56697Z" fill="#333333"/>
<path d="M40.9585 14.8501H42.6391V2.36938H40.9585V14.8501Z" fill="#333333"/>
<path fill-rule="evenodd" clip-rule="evenodd" d="M6.78598 17.3895V17.2463L6.80563 17.1225C6.8607 16.6413 7.25319 16.2047 7.75267 16.172H7.97342C8.16797 16.1483 8.47459 16.3191 8.60922 16.4453L8.68054 16.5039L8.73245 16.5689L8.63518 16.7319L8.77781 16.6992L9.10239 16.3607L9.06333 16.3346C6.02161 14.734 5.14129 19.6244 8.53135 18.9913L9.10239 18.8479V18.1447L9.10869 18.1123L9.14775 18.0926L9.24502 17.9887H8.40157L8.1032 18.1447L8.69995 18.1254V18.7895L8.64803 18.8023C7.73229 19.118 6.86822 18.4798 6.78598 17.5327V17.3895Z" fill="#333333"/>
<path fill-rule="evenodd" clip-rule="evenodd" d="M5.67003 17.6951H5.28068L5.07958 18.4307L5.05363 18.5152L5.03422 18.5872L5.02136 18.6456L5.01482 18.6977H4.98862L4.9629 18.6131L4.9498 18.5414L4.9304 18.4762L4.9173 18.4307L4.69024 17.6951H4.28149L4.78121 18.9906L4.79407 19.0623L4.78776 19.0817L4.78121 19.1144L4.73585 19.1665L4.69679 19.2186L4.64488 19.2641L4.61892 19.2838L4.59952 19.3097L4.48914 19.3683L4.40497 19.4204L4.47629 19.7264L4.52165 19.7134C5.00099 19.6089 5.14678 19.0381 5.3326 18.6521L5.67003 17.6951Z" fill="#333333"/>
<path fill-rule="evenodd" clip-rule="evenodd" d="M3.18508 17.0703H2.80884V19.0954H3.11376L3.13317 18.8999H3.15258L3.17853 18.9454L3.21759 18.9912L3.31486 19.0692L3.42524 19.1085L3.56132 19.1344L3.678 19.1148L3.72992 19.0954L3.75612 19.0823L3.76897 19.0758H3.78838L3.8922 19.0108L3.93781 18.9716L3.98972 18.9326L4.00258 18.9066L4.00913 18.8933L4.02223 18.887L4.06104 18.8478L4.1064 18.7438V18.7242L4.11295 18.7111L4.12605 18.6852L4.15177 18.6331L4.15831 18.5679C4.21775 18.3562 4.16947 18.0271 4.02223 17.8582L3.97686 17.8062L3.93781 17.7669L3.88565 17.7279L3.84029 17.702L3.78183 17.6758L3.72992 17.663H3.61324L3.47715 17.6693L3.41214 17.6823L3.36022 17.7085L3.26295 17.7734L3.21759 17.819L3.18508 17.8776V17.0703ZM3.49 17.9494L3.55477 17.9559C3.74957 18.0131 3.84757 18.2999 3.80779 18.4899L3.79493 18.5289H3.78838V18.5745L3.75612 18.6525L3.74302 18.6656H3.73647V18.6852L3.72361 18.7242L3.6717 18.7697L3.61978 18.8022L3.55477 18.8218L3.49 18.8284L3.41869 18.8218L3.36022 18.8022L3.30831 18.7697L3.27581 18.7373L3.23044 18.6852C3.13414 18.5233 3.14627 18.078 3.36022 17.9755L3.41869 17.9559L3.49 17.9494Z" fill="#333333"/>
<path fill-rule="evenodd" clip-rule="evenodd" d="M11.2952 17.3631L11.2239 17.2916L11.1526 17.233C9.88507 16.5289 8.89219 18.2504 10.1211 18.9586L10.2118 18.9911L10.3157 19.017C11.164 19.1963 11.8262 18.3698 11.4444 17.5911L11.399 17.5131L11.2952 17.3631ZM10.828 17.3045L10.8799 17.3631L10.9318 17.4348L10.9774 17.5131C11.0652 17.6994 11.13 17.8853 11.1526 18.0924V18.2552L11.146 18.3725L11.1329 18.4963L11.0941 18.6133L11.0487 18.7306L11.0228 18.7437L11.0097 18.75L11.0034 18.7633L10.9643 18.8021L10.8736 18.8738L10.7567 18.9128L10.6919 18.9259L10.64 18.9324C9.84747 18.8847 9.62503 16.9626 10.6659 17.2265L10.7438 17.2589L10.828 17.3045Z" fill="#333333"/>
<path fill-rule="evenodd" clip-rule="evenodd" d="M14.7532 17.1611L14.6625 17.1805C13.8557 17.4916 14.0158 18.5836 14.8764 18.5545L14.9609 18.5417L14.9284 18.6194C14.9332 18.7958 14.8888 18.7326 14.9868 18.9257L15.0453 18.9906L14.8764 18.9974L14.7792 19.004L14.6753 19.0168C14.2416 19.0514 13.7421 19.4907 14.0136 19.9414L14.059 19.9935L14.1628 20.0848C14.5584 20.3855 15.1925 20.2971 15.577 20.0196L15.6355 19.9545L15.6874 19.8958L15.733 19.8309L15.7718 19.7657C16.0374 19.0803 15.5603 19.0468 15.2917 18.6783L15.2852 18.6456L15.2917 18.6194V18.5545L15.3243 18.4959L15.389 18.4178L15.4475 18.3592L15.5123 18.3137L15.6161 18.1964L15.6292 18.1508L15.6486 18.1118L15.6745 18.0273L15.6939 17.9359L15.7005 17.8448L15.6874 17.721L15.6745 17.6168L15.6355 17.5323L15.5967 17.4736L15.5513 17.3954L15.5123 17.3498L15.4734 17.3043L15.4344 17.2849H15.6745L15.9276 17.1221H15.1035L14.9284 17.1284L14.7532 17.1611ZM14.5781 17.4085L14.6365 17.3435L14.7079 17.298C14.8454 17.2364 15.0128 17.2633 15.1166 17.376L15.1554 17.4215L15.2333 17.5388C15.3075 17.6696 15.4004 18.1017 15.3243 18.2419L15.3112 18.255H15.3046V18.2747L15.2917 18.3137L15.2527 18.333L15.2204 18.3592L15.1554 18.4048L15.0775 18.4241L15.0387 18.4307L15.0062 18.444L14.9415 18.4307L14.883 18.4113L14.8311 18.3851L14.7792 18.3527C14.5701 18.2119 14.4296 17.769 14.5068 17.5388L14.5327 17.4673L14.5781 17.4085ZM15.0712 19.0951H15.1491C15.3289 19.2368 15.5685 19.403 15.577 19.655L15.5707 19.694H15.5642V19.7398L15.5382 19.8176L15.5123 19.8503L15.4928 19.8895L15.4734 19.9024L15.4603 19.922L15.4344 19.9608L15.4084 19.9675L15.389 19.9806L15.3437 20.0066L15.2917 20.0262L15.2398 20.0521L15.1748 20.0586L15.1166 20.0717H15.0581L15.0453 20.0783L14.9803 20.0848L14.8311 20.0717L14.7598 20.0586L14.7013 20.0456L14.6365 20.0196C14.0087 19.7628 14.2557 19.0858 14.9997 19.0951H15.0712Z" fill="#333333"/>
<path fill-rule="evenodd" clip-rule="evenodd" d="M13.592 17.3632L13.5206 17.2917L13.4493 17.233C12.2735 16.5687 11.22 18.0772 12.3203 18.9129L12.4113 18.9587L12.502 18.9911C13.338 19.2516 14.098 18.4939 13.7736 17.6757L13.6958 17.5131L13.592 17.3632ZM12.7876 17.2006L12.8717 17.2069L12.9627 17.2265L13.0406 17.259L13.125 17.3045L13.1767 17.3632L13.2223 17.4349L13.3001 17.5975L13.3324 17.6757L13.3455 17.715V17.7215L13.3518 17.7344L13.3649 17.7605L13.4103 17.9299L13.4234 18.0079L13.4362 18.0925V18.2291L13.4428 18.2553L13.4362 18.3725L13.4234 18.4964L13.3909 18.6134L13.3455 18.7307L13.2545 18.8021L13.2026 18.8348L13.1573 18.8738H13.1378C12.3507 19.2421 11.9196 17.4872 12.5993 17.233L12.6837 17.2069L12.7876 17.2006Z" fill="#333333"/>
<path fill-rule="evenodd" clip-rule="evenodd" d="M18.7502 17.5974L18.7177 17.5063L18.6983 17.4542C18.4157 16.8325 17.3064 17.0101 17.1734 17.8058L17.1543 17.9099L17.1477 18.0338L17.1543 18.1379C17.1899 18.4537 17.36 18.756 17.6278 18.9322L17.6991 18.9714L17.8417 19.0364C18.0404 19.0342 18.1629 19.0783 18.374 19.0039L18.4647 18.9714L18.4778 18.9583V18.9518H18.4972L18.5362 18.9387L18.5491 18.9256V18.9193H18.5685L18.6076 18.9063L18.8087 18.6979L18.6076 18.789L18.5685 18.7955L18.5362 18.8086L18.4712 18.8282L18.3934 18.8411H18.3349L18.322 18.8476L18.2507 18.8411L18.1857 18.8282C17.9388 18.7735 17.7529 18.5695 17.6406 18.3529L17.5693 18.1963L17.5239 18.0338L17.8095 17.9882L18.7502 17.5974ZM17.6666 17.3306L17.6991 17.2979L17.7379 17.2785C17.8655 17.2323 17.8412 17.1717 18.0237 17.2134L18.1015 17.2458L18.1663 17.2785L18.2376 17.3306L18.2767 17.3762L18.3089 17.4346L18.3286 17.4998L18.3349 17.5715L18.3286 17.5974L18.3155 17.6105H18.3089V17.6301L18.2767 17.6563L18.2376 17.6822L17.498 18.001V17.7733C17.4851 17.6335 17.5203 17.5126 17.6018 17.4021L17.6666 17.3306Z" fill="#333333"/>
<path fill-rule="evenodd" clip-rule="evenodd" d="M16.7256 16.3469L16.745 16.2362L16.7581 16.1907L16.7841 16.1713L16.8295 16.1323L16.9073 16.093H16.3559L16.0508 16.2362H16.3559L16.3494 16.3862V16.549L16.3363 16.9003L16.3234 17.226L16.3169 17.5385L16.3103 17.8317V18.7694L16.304 18.8215L16.2909 18.8736L16.2715 18.8864L16.2584 18.9126L16.2327 18.945L16.2131 18.9906H16.9073L17.05 18.906L16.8423 18.8864L16.771 18.8605L16.7256 18.828L16.7125 18.8084L16.7062 18.7759L16.6997 18.7304V17.7406L16.6866 17.5126C16.6849 17.211 16.6893 16.9091 16.6997 16.6074L16.7125 16.4707L16.7256 16.3469Z" fill="#333333"/>
</svg>
