<svg width="86" height="21" viewBox="0 0 86 21" fill="none" xmlns="http://www.w3.org/2000/svg">
<path fill-rule="evenodd" clip-rule="evenodd" d="M16.9497 20.2722H18.1296C18.403 20.2722 18.6332 20.0376 18.6476 19.759V6.66317C18.6476 5.37266 17.626 4.33144 16.3598 4.33144H14.849C14.5756 4.33144 14.3454 4.09681 14.3454 3.81816V2.63031C14.3454 1.33979 13.3238 0.298584 12.0576 0.298584H2.28778C1.02159 0.298584 0 1.33979 0 2.63031V15.7848C0 17.0606 1.02159 18.1018 2.28778 18.1165H13.6116C13.7123 18.1165 13.813 18.1458 13.8993 18.2045L16.6619 20.1842C16.7483 20.2429 16.849 20.2722 16.9497 20.2722ZM14.2015 16.2541H2.31656C2.02879 16.2541 1.81296 16.0341 1.81296 15.7408V2.65964C1.81296 2.38101 2.04317 2.14637 2.31656 2.14637H12.0288C12.3022 2.14637 12.5324 2.38101 12.5324 2.65964V3.81816C12.5324 4.09681 12.3022 4.33144 12.0288 4.33144H4.79138C4.518 4.33144 4.28778 4.56607 4.28778 4.84472V13.5704C4.28778 13.849 4.518 14.0836 4.79138 14.0836H13.8274C14.1008 14.0836 14.331 13.849 14.331 13.5704V6.6925C14.331 6.41385 14.5612 6.17922 14.8346 6.17922H16.3166C16.59 6.17922 16.8202 6.41385 16.8202 6.6925V17.3979C16.8202 17.6619 16.5325 17.8085 16.331 17.6619L14.4893 16.342C14.403 16.2834 14.3022 16.2541 14.2015 16.2541ZM12.2734 12.2212H6.34535C6.21585 12.2212 6.10075 12.1185 6.10075 11.9719V6.42855C6.10075 6.29655 6.20147 6.17922 6.34535 6.17922H12.2734C12.4029 6.17922 12.518 6.28189 12.518 6.42855V11.9719C12.518 12.1039 12.4173 12.2212 12.2734 12.2212ZM64.4786 3.08705C65.2342 3.08705 65.8463 2.46283 65.8463 1.69282C65.8463 0.922802 65.2342 0.298584 64.4786 0.298584C63.723 0.298584 63.1105 0.922802 63.1105 1.69282C63.1105 2.46283 63.723 3.08705 64.4786 3.08705ZM48.873 5.12538V4.35081H46.6691V14.0072H48.873V7.41037L51.4443 6.32594V4.06677H51.419L48.873 5.12538ZM40.3342 4.34211C38.903 4.34211 37.7377 4.81976 36.851 5.78798C36.4457 6.23981 36.1289 6.75619 35.9012 7.36294C35.6857 7.95679 35.5717 8.58934 35.5717 9.24774C35.5717 10.6032 35.9517 11.7264 36.7243 12.5913C37.5731 13.5466 38.7384 14.0114 40.2202 14.0114C41.6641 14.0114 42.8168 13.5337 43.6908 12.5655C44.514 11.6489 44.9319 10.5 44.9319 9.10573C44.9319 7.71149 44.5266 6.58836 43.7287 5.71051C42.8803 4.79395 41.7529 4.34211 40.3342 4.34211ZM42.0567 11.21C41.6388 11.7393 41.056 12.0104 40.3216 12.0104C39.5363 12.0104 38.8904 11.7393 38.4089 11.1971C38.1809 10.9518 38.0037 10.642 37.877 10.2934C37.7503 9.94485 37.6868 9.58337 37.6868 9.19609C37.6868 8.42151 37.8896 7.77604 38.3075 7.23384C38.7637 6.65291 39.3844 6.35598 40.1823 6.35598C40.9676 6.35598 41.5883 6.6271 42.0315 7.18222C42.4494 7.6986 42.6648 8.36989 42.6648 9.20901C42.6775 10.0223 42.4747 10.6936 42.0567 11.21ZM63.3621 4.35238H65.5534V14.0217H63.3621V4.35238ZM29.9242 4.34211C28.6702 4.34211 27.6443 4.71648 26.8463 5.46524C26.099 6.17526 25.719 7.06601 25.719 8.13751C25.719 9.0928 26.0483 9.8803 26.7069 10.5129C26.137 10.9776 25.8583 11.5327 25.8583 12.1911C25.8583 12.5913 25.909 12.9399 25.9976 13.2368C26.0863 13.5466 26.2636 13.8048 26.5423 14.0372C25.5543 14.5923 25.073 15.496 25.111 16.7353C25.1364 17.8068 25.5923 18.6588 26.479 19.3043C27.3656 19.9497 28.5436 20.2725 29.9875 20.2725C31.4315 20.2725 32.5081 19.9885 33.2427 19.4205C33.9772 18.8524 34.3446 18.0392 34.3446 16.9677C34.3446 15.9091 34.0534 15.0829 33.4707 14.5019C33.1541 14.1921 32.7488 13.9468 32.2548 13.7274C31.7481 13.5208 31.0641 13.3401 30.1775 13.198C29.2909 13.0561 28.6576 12.9012 28.2776 12.7075C28.1002 12.63 27.9862 12.5397 27.9356 12.4493C27.8849 12.3589 27.8596 12.2298 27.8596 12.062C27.8596 11.8942 27.9736 11.6618 28.1889 11.3649C28.6829 11.5327 29.2275 11.6231 29.8102 11.6231C31.0008 11.6231 31.9761 11.2616 32.7488 10.5258C33.0907 10.1901 33.3568 9.78994 33.5467 9.33811C33.7367 8.88627 33.8253 8.38278 33.8253 7.82769C33.8253 7.27258 33.6987 6.74327 33.4454 6.2527C33.4454 6.2527 33.4454 6.23981 33.4328 6.23981H34.3572V4.34211H29.9242ZM28.3916 14.7859L28.8476 14.8634C30.1268 15.057 31.0388 15.3152 31.5581 15.6638C32.0268 15.9607 32.2548 16.3609 32.2548 16.8515C32.2548 17.8842 31.5328 18.3877 30.0889 18.3877C29.2402 18.3877 28.5562 18.207 28.0242 17.8584C27.7836 17.7035 27.5936 17.5099 27.4669 17.2904C27.3276 17.0709 27.2643 16.8256 27.2643 16.5287C27.2643 16.2318 27.3529 15.922 27.5303 15.5992C27.7203 15.2636 28.0116 15.0054 28.3916 14.7859ZM31.1528 9.24774C30.7982 9.57048 30.3802 9.73828 29.9115 9.73828C29.2782 9.73828 28.7716 9.55756 28.3789 9.19609C28.2016 9.04118 28.0749 8.84754 27.9736 8.65389C27.8849 8.44732 27.8342 8.24079 27.8342 8.02134C27.8342 7.80185 27.8722 7.58239 27.9609 7.36294C28.2396 6.6271 28.8602 6.26562 29.8355 6.26562C30.4182 6.26562 30.8868 6.42053 31.2161 6.73038C31.5455 7.0402 31.7228 7.4533 31.7228 7.95679C31.7101 8.44732 31.5201 8.88627 31.1528 9.24774ZM75.2301 6.44634C75.3947 6.88529 75.4835 7.40167 75.4835 7.95679V13.9855H73.3301V13.5337C72.6841 13.8306 72.0886 13.9855 71.5441 13.9855C70.8602 13.9855 70.2904 13.921 69.8089 13.7919C69.3275 13.6628 68.9222 13.4692 68.5928 13.2239C67.9215 12.7075 67.5798 11.9716 67.5798 11.0163C67.5798 10.1643 67.985 9.44139 68.8208 8.87335C69.7202 8.25368 70.949 7.94387 72.4943 7.94387L72.8487 7.95679C72.8852 7.95679 72.9217 7.95976 72.9596 7.96286C73.0009 7.9662 73.0433 7.96968 73.0894 7.96968C73.132 7.97588 73.1717 7.97909 73.2095 7.98219C73.2509 7.98557 73.2905 7.98877 73.3301 7.99549C73.2795 7.0402 72.8743 6.47219 72.1143 6.31725C71.8735 6.26562 71.5949 6.23981 71.316 6.23981C71.0248 6.23981 70.7461 6.26562 70.4802 6.31725C70.2016 6.36891 69.9356 6.44635 69.6823 6.52382C69.1251 6.70454 68.7068 6.92403 68.4661 7.15637L68.4408 7.14348L68.1749 5.16831C69.2009 4.61319 70.3409 4.34211 71.5693 4.34211C73.482 4.34211 74.6982 5.03922 75.2301 6.44634ZM73.3301 11.7006V10.4612V9.62211C73.1655 9.5963 73.0009 9.58337 72.836 9.58337H72.4813C71.1893 9.58337 70.3661 9.8803 70.0114 10.4612C69.9103 10.6291 69.8595 10.8098 69.8595 11.0034C69.8595 11.1971 69.8977 11.3649 69.9609 11.5069C70.037 11.6489 70.1507 11.778 70.303 11.8684C70.6068 12.0491 71.063 12.1395 71.6581 12.1395C72.2536 12.1395 72.8108 11.9846 73.3301 11.7006ZM83.5787 8.61516C83.9461 8.79591 84.2499 9.01537 84.478 9.27356C84.8959 9.73828 85.1113 10.3579 85.1113 11.1583C85.1113 11.9975 84.7819 12.6817 84.1233 13.211C83.4394 13.7661 82.4766 14.0372 81.2355 14.0372C79.7407 14.0372 78.5754 13.779 77.7522 13.2755V10.9001C77.7522 10.8873 77.8028 10.9389 77.8915 11.0422C77.9803 11.1454 78.1575 11.2616 78.3982 11.4165C78.6389 11.5715 78.9301 11.7006 79.2467 11.8167C79.9435 12.062 80.6653 12.1782 81.4253 12.1782C82.4387 12.1782 82.9453 11.8297 82.9453 11.1454C82.9453 10.926 82.8439 10.7582 82.6541 10.6549C82.312 10.4742 81.8053 10.3321 81.1341 10.2418C80.4628 10.1385 79.9182 10.0094 79.4874 9.82868C79.0568 9.64792 78.7021 9.42846 78.4361 9.1832C77.9421 8.70552 77.6887 8.08589 77.6887 7.3242C77.6887 6.39472 78.0435 5.65888 78.7403 5.12958C79.4368 4.60031 80.3993 4.34211 81.6281 4.34211C82.8439 4.34211 83.8826 4.69067 84.744 5.40069C84.7061 5.5556 84.6678 5.71051 84.6173 5.85253C84.478 6.2527 84.3766 6.53674 84.3134 6.70454L84.1106 7.23384C84.098 7.28547 84.0854 7.31131 84.0854 7.31131C84.0727 7.31131 84.0219 7.24676 83.9461 7.11767C83.5787 6.67872 82.9962 6.39472 82.2236 6.2527C81.9828 6.20108 81.7421 6.17526 81.4888 6.17526C80.4249 6.17526 79.8926 6.498 79.8926 7.15637C79.8926 7.37586 79.994 7.55658 80.2221 7.67275C80.64 7.90513 81.2102 8.07296 81.932 8.17625C82.6541 8.29242 83.1987 8.43444 83.5787 8.61516ZM56.9146 4.34211C55.6609 4.34211 54.6349 4.71648 53.837 5.46524C53.0896 6.17526 52.7096 7.06601 52.7096 8.13751C52.7096 9.0928 53.0387 9.8803 53.6973 10.5129C53.1275 10.9776 52.8489 11.5327 52.8489 12.1911C52.8489 12.5913 52.8994 12.9399 52.9882 13.2368C53.077 13.5466 53.2542 13.8048 53.5328 14.0372C52.545 14.5923 52.0636 15.496 52.1015 16.7353C52.1268 17.8068 52.5829 18.6588 53.4696 19.3043C54.3563 19.9497 55.5342 20.2725 56.9781 20.2725C58.422 20.2725 59.4985 19.9885 60.2333 19.4205C60.968 18.8524 61.3354 18.0392 61.3354 16.9677C61.3354 15.9091 61.0438 15.0829 60.4614 14.5019C60.1445 14.1921 59.7392 13.9468 59.2452 13.7274C58.7385 13.5208 58.0546 13.3401 57.1679 13.198C56.2813 13.0561 55.6483 12.9012 55.2683 12.7075C55.0907 12.63 54.9767 12.5397 54.9261 12.4493C54.8756 12.3589 54.85 12.2298 54.85 12.062C54.85 11.8942 54.964 11.6618 55.1795 11.3649C55.6735 11.5327 56.2181 11.6231 56.8006 11.6231C57.9915 11.6231 58.9666 11.2616 59.7392 10.5258C60.0813 10.1901 60.3473 9.78994 60.5372 9.33811C60.7273 8.88627 60.8161 8.38278 60.8161 7.82769C60.8161 7.27258 60.6894 6.74327 60.4361 6.2527C60.4361 6.2527 60.4361 6.23981 60.4231 6.23981H61.348V4.34211H56.9146ZM55.382 14.7859L55.8381 14.8634C57.1174 15.057 58.0294 15.3152 58.5487 15.6638C59.0175 15.9607 59.2452 16.3609 59.2452 16.8515C59.2452 17.8842 58.5234 18.3877 57.0795 18.3877C56.2307 18.3877 55.5469 18.207 55.0149 17.8584C54.7742 17.7035 54.584 17.5099 54.4574 17.2904C54.3181 17.0709 54.2549 16.8256 54.2549 16.5287C54.2549 16.2318 54.3433 15.922 54.5209 15.5992C54.7107 15.2636 55.0023 15.0054 55.382 14.7859ZM58.1434 9.24774C57.7887 9.57048 57.3708 9.73828 56.902 9.73828C56.2686 9.73828 55.762 9.55756 55.3693 9.19609C55.1921 9.04118 55.0654 8.84754 54.964 8.65389C54.8756 8.44732 54.8247 8.24079 54.8247 8.02134C54.8247 7.80185 54.8626 7.58239 54.9514 7.36294C55.23 6.6271 55.8507 6.26562 56.8262 6.26562C57.4087 6.26562 57.8774 6.42053 58.2066 6.73038C58.536 7.0402 58.7132 7.4533 58.7132 7.95679C58.7006 8.44732 58.5108 8.88627 58.1434 9.24774Z" fill="#333333"/>
</svg>
