<svg width="94" height="15" viewBox="0 0 94 15" fill="none" xmlns="http://www.w3.org/2000/svg">
<g opacity="0.6">
<path d="M0 9.89818L1.2264 8.57457C1.8494 9.40975 2.4724 9.88327 3.36094 9.88327C4.361 9.88327 5.04234 9.1893 5.04234 7.70771V0.489862H6.96501V7.77156C6.96501 9.07931 6.58701 10.0562 5.96634 10.7026C5.34567 11.349 4.45154 11.6753 3.3922 11.6753C1.757 11.6799 0.696734 10.8918 0 9.89818ZM9.28667 8.51865V3.28621H11.1799V7.95798C11.1799 9.23964 11.8235 9.95084 12.9477 9.95084C14.0415 9.95084 14.8083 9.20329 14.8083 7.92163V3.28621H16.7165V11.5089H14.8083V10.2272C14.2721 11.0055 13.5109 11.6753 12.2276 11.6753C10.3656 11.6799 9.28667 10.4332 9.28667 8.51865ZM18.5738 2.99213H20.4708V4.25235C21.008 3.48941 21.771 2.82015 23.0562 2.82015C24.921 2.82015 26.0032 4.06593 26.0032 5.96465V11.2092H24.1066V6.5407C24.1066 5.25997 23.4617 4.53198 22.3352 4.53198C21.238 4.53198 20.4708 5.29539 20.4708 6.57192V11.2092H18.5733V2.99213H18.5738ZM28.2586 13.0436L28.9483 11.6524C29.821 12.1884 30.7235 12.509 31.8258 12.509C33.4792 12.509 34.3817 11.6524 34.3817 10.0315V9.40229C33.7088 10.2743 32.8669 10.8858 31.535 10.8858C29.6371 10.8858 27.8605 9.47826 27.8605 7.11115V7.07853C27.8605 4.69371 29.652 3.28621 31.535 3.28621C32.8996 3.28621 33.7396 3.91539 34.3691 4.66295V3.45725H36.219V9.87954C36.219 11.2423 35.8671 12.249 35.1932 12.9201C34.4587 13.6537 33.3256 14.0051 31.872 14.0051C30.6022 14.0196 29.3527 13.6871 28.2586 13.0436ZM34.3976 7.0953V7.06501C34.3976 5.75026 33.3112 4.84844 32.025 4.84844C30.7394 4.84844 29.7281 5.73535 29.7281 7.06501V7.0953C29.7281 8.41145 30.7538 9.31281 32.025 9.31281C33.2962 9.31281 34.3976 8.41145 34.3976 7.0953ZM38.5406 0.0238037H40.398V11.2092H38.5406V0.0238037ZM42.2553 7.49798V7.47188C42.2553 5.17608 43.9078 3.28621 46.2406 3.28621C48.8358 3.28621 50.1494 5.29492 50.1494 7.60843C50.1494 7.77575 50.1336 7.94353 50.1186 8.13042H44.1252C44.3254 9.43911 45.2681 10.1694 46.4726 10.1694C47.3844 10.1694 48.0326 9.83433 48.6822 9.21028L49.7789 10.1694C49.0061 11.0829 47.9402 11.6753 46.4418 11.6753C44.0786 11.6669 42.2558 9.97648 42.2558 7.49798H42.2553ZM48.2935 6.90422C48.1717 5.71764 47.4619 4.78878 46.2257 4.78878C45.0824 4.78878 44.2788 5.65612 44.107 6.90422H48.293H48.2935Z" fill="#333333"/>
<path d="M51.5425 9.93969L52.6835 8.57274C53.7167 9.47409 54.7658 9.98489 56.0916 9.98489C57.2629 9.98489 58.0035 9.42516 58.0035 8.61655V8.58532C58.0035 7.80887 57.5719 7.38895 55.5713 6.92336C53.2734 6.36409 51.9761 5.67991 51.9761 3.67493V3.64464C51.9761 1.77947 53.5189 0.490356 55.6627 0.490356C57.2349 0.490356 58.4837 0.971795 59.5748 1.85731L58.5589 3.30442C57.5868 2.57457 56.6161 2.18588 55.6282 2.18588C54.518 2.18588 53.8707 2.76099 53.8707 3.47593V3.50715C53.8707 4.34559 54.3649 4.7189 56.4458 5.21199C58.7287 5.77126 59.9005 6.59712 59.9005 8.39703V8.42779C59.9005 10.4645 58.3143 11.6758 56.0449 11.6758C54.3788 11.684 52.7709 11.064 51.5425 9.93969ZM60.8292 7.51945V7.48915C60.8292 5.20547 62.5918 3.28671 65.0082 3.28671C66.5132 3.28671 67.4554 3.85064 68.2152 4.6723L67.0602 5.90595C66.4978 5.31173 65.9047 4.9002 64.9928 4.9002C63.6558 4.9002 62.6679 6.05696 62.6679 7.45839V7.48869C62.6679 8.91995 63.6558 10.0623 65.0647 10.0623C65.9308 10.0623 66.5697 9.66611 67.1488 9.07235L68.259 10.1685C67.468 11.0522 66.5417 11.6753 64.976 11.6753C62.5913 11.6753 60.8292 9.80313 60.8292 7.51898V7.51945ZM79.4035 8.51914V3.28671H81.2954V7.95847C81.2954 9.24013 81.9394 9.95134 83.0631 9.95134C84.1584 9.95134 84.9242 9.20378 84.9242 7.92212V3.28671H86.8328V11.5094H84.9256V10.2277C84.3889 11.006 83.6273 11.6758 82.3449 11.6758C80.4824 11.6804 79.403 10.4337 79.403 8.51914H79.4035ZM89.2628 9.23827V4.86944H88.2258V3.23544H89.2628V0.956415H91.1355V3.23544H93.3335V4.86944H91.1355V8.93953C91.1355 9.67869 91.507 9.97697 92.1416 9.97697C92.5457 9.97817 92.9439 9.8809 93.3018 9.69361V11.2498C92.7884 11.5448 92.2051 11.6916 91.6152 11.6744C90.2376 11.6744 89.2628 11.061 89.2628 9.2378V9.23827ZM69.1877 7.51712V7.48682C69.1877 5.19102 71.0679 3.28671 73.6052 3.28671C76.1429 3.28671 78.0105 5.15886 78.0105 7.46072V7.49102C78.0105 9.7747 76.1298 11.6758 73.5762 11.6758C71.0516 11.6716 69.1877 9.80034 69.1877 7.51712ZM76.113 7.51712V7.48682C76.113 6.07187 75.063 4.9002 73.5744 4.9002C72.0507 4.9002 71.0838 6.05602 71.0838 7.45653V7.48682C71.0838 8.88733 72.1347 10.0595 73.6066 10.0595C75.1405 10.0595 76.1126 8.90224 76.1126 7.51712H76.113Z" fill="#333333"/>
<path d="M73.8311 5.61597C74.5348 5.79076 75.1018 6.59154 75.1018 7.49113C75.1018 8.30263 74.6468 9.05634 74.0579 9.34486C75.0402 9.19244 75.7435 8.34365 75.6851 7.38067C75.6263 6.41814 74.8251 5.65512 73.8311 5.61597Z" fill="#333333"/>
</g>
</svg>
