<svg width="87" height="21" viewBox="0 0 87 21" fill="none" xmlns="http://www.w3.org/2000/svg">
<path d="M0.600157 9.27208L13.8915 0.47855C14.1748 0.313986 14.4967 0.227295 14.8245 0.227295C15.1522 0.227295 15.4741 0.313986 15.7574 0.47855L29.0488 9.27208C29.2279 9.35884 29.3789 9.49419 29.4845 9.66266C29.5902 9.83113 29.6462 10.0259 29.6462 10.2247C29.6462 10.4235 29.5902 10.6183 29.4845 10.7867C29.3789 10.9552 29.2279 11.0906 29.0488 11.1773L27.2668 12.3498C25.9375 10.2525 24.0988 8.52505 21.9215 7.32801C19.7443 6.13097 17.2993 5.50326 14.814 5.50326C12.3286 5.50326 9.88361 6.13097 7.70638 7.32801C5.52915 8.52505 3.69039 10.2525 2.36114 12.3498L0.579156 11.1773C0.40297 11.0869 0.25547 10.9493 0.153188 10.7799C0.0509063 10.6105 -0.00211566 10.416 6.46308e-05 10.2182C0.00224492 10.0204 0.0595413 9.82713 0.165532 9.66002C0.271523 9.4929 0.42202 9.35857 0.600157 9.27208ZM14.814 9.1674C12.9371 9.17164 11.0917 9.64993 9.4496 10.5578C7.80749 11.4656 6.42198 12.7735 5.42196 14.3597L8.48272 16.3906C9.13832 15.3046 10.0638 14.4063 11.1694 13.7827C12.275 13.159 13.5232 12.8313 14.793 12.8313C16.0627 12.8313 17.311 13.159 18.4166 13.7827C19.5222 14.4063 20.4477 15.3046 21.1033 16.3906L24.1641 14.3597C23.1786 12.7695 21.802 11.4576 20.1654 10.5488C18.5288 9.63991 16.6866 9.16438 14.814 9.1674ZM14.814 16.5163C14.1525 16.5207 13.5038 16.6991 12.9333 17.0336C12.3628 17.3681 11.8907 17.8468 11.5645 18.4215L13.619 19.7615C13.9532 20.0438 14.3763 20.1994 14.814 20.2012C15.2523 20.2031 15.6766 20.047 16.009 19.7615L18.0634 18.4215C17.74 17.8444 17.2684 17.3638 16.6974 17.0289C16.1263 16.6941 15.4762 16.5172 14.814 16.5163Z" fill="#333333"/>
<path d="M37.8957 10.172L41.229 14.9456H38.881L36.3653 11.2397V14.9456H34.4575V5.48207H36.3653V9.25073L38.7552 5.48207H40.9564L37.8957 10.172ZM44.5204 5.50298H42.6126V14.9665H47.4973V13.0615H44.4785L44.5204 5.50304V5.50298ZM53.1368 5.16797L57.12 14.9665H54.9816L54.6042 13.9406H51.4596L51.0822 14.9665H48.9229L52.906 5.16803L53.1368 5.16797ZM53.9123 12.161L53.0529 9.71139L52.1724 12.161H53.9123ZM59.8034 10.7582L57.8534 5.50298H55.7153L59.6986 15.3015H59.8874L63.8705 5.50304H61.7112L59.8034 10.7582ZM65.317 14.9665H67.2251V5.50304H65.3173L65.317 14.9665ZM74.7929 5.50304L72.8642 8.76922L70.9354 5.50304H68.6291L71.9205 10.6954V14.9665H73.8073V10.6954L77.1199 5.50304H74.7929ZM86.9103 10.0673C86.9103 11.0363 86.6226 11.9835 86.0836 12.7892C85.5445 13.5949 84.7784 14.2228 83.882 14.5936C82.9856 14.9645 81.9992 15.0615 81.0476 14.8724C80.096 14.6834 79.2219 14.2168 78.5358 13.5316C77.8497 12.8464 77.3825 11.9735 77.1932 11.0231C77.0039 10.0727 77.1011 9.08766 77.4724 8.19244C77.8437 7.29721 78.4724 6.53205 79.2792 5.99371C80.0859 5.45537 81.0344 5.16803 82.0046 5.16803C83.3052 5.16968 84.552 5.68639 85.4716 6.60482C86.3913 7.52326 86.9087 8.76845 86.9103 10.0673ZM85.0655 10.0673C85.0655 9.46272 84.886 8.87171 84.5496 8.36901C84.2133 7.86631 83.7353 7.4745 83.176 7.24312C82.6167 7.01175 82.0013 6.9512 81.4075 7.06915C80.8138 7.18709 80.2684 7.47822 79.8403 7.90572C79.4123 8.33322 79.1207 8.8779 79.0026 9.47086C78.8845 10.0638 78.9451 10.6785 79.1768 11.237C79.4085 11.7956 79.8008 12.273 80.3041 12.6089C80.8075 12.9448 81.3993 13.1241 82.0046 13.1241C82.4069 13.1254 82.8055 13.0472 83.1775 12.894C83.5494 12.7409 83.8873 12.5157 84.1718 12.2316C84.4563 11.9475 84.6817 11.6101 84.8351 11.2386C84.9884 10.8672 85.0667 10.4691 85.0655 10.0673Z" fill="#171A1D"/>
</svg>
