<svg width="49" height="15" viewBox="0 0 49 15" fill="none" xmlns="http://www.w3.org/2000/svg">
<path fill-rule="evenodd" clip-rule="evenodd" d="M30.5098 14.6924C32.4766 14.6924 34.135 14.0339 35.4843 12.7159C36.8335 11.3987 37.5073 9.727 37.5073 7.70159C37.5073 5.67615 36.8335 4.00524 35.4843 2.68727C34.135 1.36929 32.4774 0.710693 30.5098 0.710693C28.5421 0.710693 26.8805 1.36929 25.5241 2.68647C25.1825 3.01893 23.7835 4.93247 23.7835 4.93247L25.0845 6.58133L27.079 4.13759V4.1502C27.0849 4.1439 27.0906 4.13761 27.0964 4.13131C27.1021 4.125 27.1078 4.11869 27.1138 4.11238C27.9893 3.208 29.1179 2.7558 30.4995 2.7558C31.8811 2.7558 33.0097 3.208 33.8851 4.11238C34.7598 5.01756 35.198 6.21422 35.198 7.70159C35.198 9.18973 34.7598 10.3895 33.8851 11.3002C33.0097 12.2117 31.8811 12.6599 30.4995 12.667C28.3649 12.6781 27.1083 11.3443 27.1083 11.3443L20.8589 3.69485C20.613 3.33877 20.3298 3.00238 20.0072 2.68727C18.6579 1.36929 17.0003 0.710693 15.0327 0.710693C13.065 0.710693 11.4034 1.36929 10.0478 2.68727C8.6923 4.00445 8.01454 5.67615 8.01454 7.70159C8.01454 9.727 8.6923 11.3987 10.0478 12.7159C11.4034 14.0339 13.065 14.6924 15.0327 14.6924C16.9892 14.6924 18.6397 14.0402 19.985 12.7371C19.987 12.7352 19.9895 12.7328 19.9924 12.7301C19.9966 12.7262 20.0016 12.7214 20.0072 12.7159C20.0036 12.7194 19.9998 12.723 19.996 12.7265C19.9923 12.7301 19.9886 12.7336 19.985 12.7371C19.83 12.8781 21.9725 10.6156 21.9725 10.6156L20.4801 8.84387C20.4801 8.84387 18.6429 12.667 15.0224 12.667C13.6407 12.667 12.5122 12.2117 11.6367 11.3002C10.7612 10.3895 10.3239 9.18973 10.3239 7.70159C10.3239 6.21342 10.7612 5.01677 11.6367 4.11238C12.5122 3.208 13.6407 2.7558 15.0224 2.7558C16.404 2.7558 17.5326 3.208 18.408 4.11238C18.4267 4.13145 18.4442 4.15088 18.4616 4.17018C18.4701 4.17958 18.4785 4.18896 18.4871 4.19825V4.15492L20.2207 6.1567L24.7499 11.8209C25.0837 12.281 25.385 12.5796 25.525 12.7159C26.8805 14.0339 28.5421 14.6924 30.5098 14.6924ZM0 0.887948V14.5546V14.5553H8.75952L7.72114 12.5339H2.25078V0.887948H0ZM48.9802 14.5546L44.7159 7.73071L49 0.887948H46.4733L43.5518 5.86286L40.4524 0.887948H37.9256L42.1899 7.73071L37.9256 14.5546H40.4524L43.3541 9.59935L46.4535 14.5546H48.9802Z" fill="#333333"/>
</svg>
