<svg width="108" height="21" viewBox="0 0 108 21" fill="none" xmlns="http://www.w3.org/2000/svg">
<path fill-rule="evenodd" clip-rule="evenodd" d="M5.94086 18.1933C3.70968 18.1933 2.17742 16.3409 2.17742 13.8978C2.17742 11.4816 3.70968 9.60237 5.94086 9.60237C8.17204 9.60237 9.7043 11.4548 9.7043 13.8978C9.7043 16.314 8.19893 18.1933 5.94086 18.1933ZM5.94086 7.58887C2.84946 7.58887 0 10.2467 0 13.8978C0 17.549 2.84946 20.2068 5.94086 20.2068C9.05914 20.2068 11.8817 17.549 11.8817 13.8978C11.9086 10.2467 9.05914 7.58887 5.94086 7.58887Z" fill="#333333"/>
<path fill-rule="evenodd" clip-rule="evenodd" d="M28.0108 7.58887C26.1022 7.58887 24.8925 8.66273 24.2205 9.57552H23.7904C23.0646 8.55535 21.9624 7.58887 20.3226 7.58887C18.6828 7.58887 17.6076 8.55535 17.1506 9.09228H16.8011L16.371 7.69625H14.9463V20.0457H17.1237V13.0119C17.1237 10.7299 18.5216 9.44129 20.1345 9.44129C22.2581 9.44129 22.5538 11.6964 22.5538 14.0858V20.0457H24.7312V12.8508C24.8119 10.6762 26.156 9.46813 27.742 9.46813C29.8656 9.46813 30.1613 11.7233 30.1613 14.1126V20.0726H32.3388V13.3609C32.3388 9.95137 30.8603 7.58887 28.0108 7.58887Z" fill="#333333"/>
<path fill-rule="evenodd" clip-rule="evenodd" d="M41.7205 7.58887C39.6775 7.58887 38.5754 8.58219 38.0915 9.11913H37.7958L37.3388 7.7231H35.9141V20.0726H38.0915V13.0119C38.0915 10.8373 39.57 9.44129 41.4248 9.44129C43.8711 9.44129 44.2474 11.8843 44.2474 14.0858V20.0457H46.4248V13.3609C46.3979 9.92453 44.8388 7.58887 41.7205 7.58887Z" fill="#333333"/>
<path fill-rule="evenodd" clip-rule="evenodd" d="M61.2366 12.7971C60.0269 12.4749 58.8441 12.0722 58.8441 10.9447C58.8441 9.9245 59.7312 9.28018 60.8871 9.28018C62.2043 9.28018 63.1721 10.1124 63.1721 11.0252H65.1882C65.1882 9.30703 63.6828 7.5083 60.8871 7.5083C58.6022 7.5083 56.8011 8.74325 56.8011 10.9447C56.8011 13.4146 59.113 14.0857 60.7796 14.5421C62.1506 14.918 63.3603 15.3207 63.3603 16.5825C63.3603 17.7906 62.2581 18.3543 61.1022 18.3543C59.7312 18.3543 58.414 17.5489 58.414 16.0187H56.4517C56.4517 18.2738 58.3065 20.1262 61.156 20.1262C63.5753 20.1262 65.457 18.757 65.457 16.4751C65.4302 13.9246 63.1452 13.2803 61.2366 12.7971Z" fill="#333333"/>
<path fill-rule="evenodd" clip-rule="evenodd" d="M70.2688 12.5823C70.672 10.5957 72.043 9.33387 73.8978 9.33387C75.7526 9.33387 76.9892 10.6762 77.2849 12.5823H70.2688ZM73.9247 7.5083C70.8333 7.5083 68.0376 9.89765 68.0376 13.7099C68.0376 17.5758 70.8064 20.1262 73.9516 20.1262C76.2096 20.1262 78.3333 18.7839 79.2742 16.5288H76.9892C76.3978 17.4953 75.3494 18.1127 73.9247 18.1127C71.801 18.1127 70.3494 16.6899 70.1613 14.381H79.543C79.8118 9.70973 76.9086 7.5083 73.9247 7.5083Z" fill="#333333"/>
<path fill-rule="evenodd" clip-rule="evenodd" d="M88.4139 7.5083C86.3709 7.5083 85.2687 8.50163 84.7848 9.03856H84.4891L84.0322 7.64253H82.6074V19.992H84.7848V12.9582C84.7848 10.7836 86.2633 9.38757 88.1182 9.38757C90.5644 9.38757 90.9408 11.8306 90.9408 14.032V19.992H93.1182V13.2803C93.0913 9.87081 91.559 7.5083 88.4139 7.5083Z" fill="#333333"/>
<path fill-rule="evenodd" clip-rule="evenodd" d="M101.882 18.1123C100.027 18.1123 98.172 16.5015 98.172 13.8437C98.172 11.1859 100.027 9.57506 101.882 9.57506C103.522 9.57506 105.43 10.81 105.43 13.8437C105.43 16.8773 103.495 18.1123 101.882 18.1123ZM105.43 2.46069V9.49451C104.651 8.34011 103.441 7.50786 101.694 7.50786C98.5484 7.50786 95.9946 10.1657 95.9946 13.8168C95.9946 17.468 98.5484 20.1258 101.694 20.1258C103.306 20.1258 104.462 19.4278 105.215 18.4076H105.618L106.075 19.9916H107.5V2.46069H105.43Z" fill="#333333"/>
<path fill-rule="evenodd" clip-rule="evenodd" d="M49.1399 5.5752V7.45446C50.8603 7.96455 51.1291 9.73643 51.1291 12.0184V20.0455H53.3066V11.2935C53.3066 7.88401 51.9356 5.81682 49.1399 5.5752Z" fill="#333333"/>
<path fill-rule="evenodd" clip-rule="evenodd" d="M51.7204 0.232178C50.8333 0.232178 50.1344 0.95712 50.1344 1.81631C50.1344 2.70235 50.8602 3.40045 51.7204 3.40045C52.6075 3.40045 53.3065 2.6755 53.3065 1.81631C53.3065 0.95712 52.6075 0.232178 51.7204 0.232178Z" fill="#333333"/>
</svg>
