<svg width="71" height="21" viewBox="0 0 71 21" fill="none" xmlns="http://www.w3.org/2000/svg">
<path d="M27.9179 19.5447C28.1106 19.6669 28.4041 19.7674 28.7068 19.7674C29.1567 19.7674 29.416 19.5285 29.416 19.1882C29.416 18.8704 29.2387 18.6856 28.7765 18.5116C28.2252 18.3159 27.8784 18.0267 27.8784 17.5503C27.8784 17.0175 28.3205 16.6285 28.9739 16.6285C29.3262 16.6285 29.5794 16.7105 29.7288 16.7933L29.6065 17.1521C29.4989 17.0887 29.2697 16.992 28.9616 16.992C28.4986 16.992 28.3251 17.2688 28.3251 17.4993C28.3251 17.8156 28.5311 17.9741 28.9972 18.1543C29.5724 18.377 29.8659 18.6523 29.8659 19.1534C29.8659 19.677 29.4757 20.1348 28.6766 20.1348C28.3468 20.1348 27.9922 20.0358 27.8071 19.9136L27.9179 19.5447Z" fill="#231F20"/>
<path d="M30.728 18.9381C30.7381 19.5389 31.1252 19.7879 31.5681 19.7879C31.8817 19.7879 32.0721 19.7315 32.237 19.6573L32.3199 19.9797C32.1604 20.0478 31.8948 20.1344 31.5054 20.1344C30.7551 20.1344 30.303 19.6348 30.303 18.9002C30.303 18.164 30.7381 17.584 31.4481 17.584C32.2479 17.584 32.4592 18.2854 32.4592 18.7347C32.4592 18.8221 32.45 18.8955 32.4469 18.9381H30.728ZM32.0326 18.6218C32.0357 18.3403 31.9119 17.901 31.4171 17.901C30.9665 17.901 30.7675 18.3155 30.7311 18.6218H32.0326Z" fill="#231F20"/>
<path d="M33.2509 18.9381C33.264 19.5389 33.6458 19.7879 34.094 19.7879C34.4092 19.7879 34.6012 19.7315 34.7638 19.6573L34.8435 19.9797C34.6871 20.0478 34.4208 20.1344 34.0329 20.1344C33.278 20.1344 32.832 19.6348 32.832 18.9002C32.832 18.164 33.2641 17.584 33.9771 17.584C34.7723 17.584 34.9867 18.2854 34.9867 18.7347C34.9867 18.8221 34.9721 18.8955 34.9689 18.9381H33.2509H33.2509ZM34.5524 18.6218C34.5617 18.3403 34.4394 17.901 33.9384 17.901C33.4917 17.901 33.2935 18.3155 33.261 18.6218H34.5524Z" fill="#231F20"/>
<path d="M36.9921 20.0784L36.1311 16.682H36.5941L36.9936 18.4003C37.095 18.8218 37.1864 19.244 37.2491 19.5735H37.2577C37.3172 19.2386 37.4195 18.8365 37.5372 18.3949L37.9901 16.682H38.4438L38.8634 18.4057C38.9579 18.8086 39.0469 19.2123 39.0972 19.5657H39.1073C39.18 19.1976 39.2776 18.8156 39.379 18.3949L39.8281 16.682H40.2779L39.3171 20.0784H38.8572L38.4267 18.3099C38.3222 17.8768 38.2486 17.5427 38.2091 17.204H38.1945C38.1348 17.5396 38.0566 17.8698 37.9335 18.3099L37.4473 20.0784H36.9921Z" fill="#231F20"/>
<path d="M40.6612 16.5013H41.1025V18.0225H41.1141C41.1853 17.8964 41.2968 17.7866 41.4315 17.7124C41.5639 17.6358 41.7203 17.584 41.886 17.584C42.2119 17.584 42.7415 17.7866 42.7415 18.6272V20.0787H42.2948V18.6759C42.2948 18.2854 42.1492 17.9544 41.7265 17.9544C41.4462 17.9544 41.2178 18.1539 41.1365 18.3952C41.1109 18.4532 41.1024 18.5197 41.1024 18.611V20.0787H40.6611V16.5013" fill="#231F20"/>
<path d="M45.1728 19.4957C45.1728 19.7045 45.1883 19.9133 45.2169 20.0788H44.812L44.7756 19.7686H44.7601C44.6254 19.962 44.3637 20.1344 44.0153 20.1344C43.5167 20.1344 43.2666 19.788 43.2666 19.4338C43.2666 18.843 43.7923 18.5197 44.7353 18.5282V18.4764C44.7353 18.2784 44.6835 17.9119 44.1841 17.9119C43.9557 17.9119 43.7133 17.983 43.5446 18.0905L43.447 17.8021C43.6468 17.6675 43.9394 17.584 44.2476 17.584C44.9916 17.584 45.1728 18.0905 45.1728 18.5839V19.4956V19.4957ZM44.747 18.8368C44.2654 18.8221 43.711 18.9079 43.711 19.3828C43.711 19.6712 43.9061 19.8089 44.1338 19.8089C44.4481 19.8089 44.6525 19.6063 44.723 19.4036L44.747 19.2552V18.8368" fill="#231F20"/>
<path d="M46.407 17.0574V17.6381H47.0388V17.9815H46.407V19.2884C46.407 19.5923 46.493 19.7671 46.7384 19.7671C46.8569 19.7671 46.932 19.757 46.9985 19.7362L47.0179 20.0664C46.9319 20.1019 46.7957 20.1344 46.6215 20.1344C46.4132 20.1344 46.2483 20.0648 46.1399 19.9426C46.016 19.8104 45.9719 19.5923 45.9719 19.3062V17.9815H45.5933V17.6381H45.9719V17.1919L46.407 17.0574" fill="#231F20"/>
<path d="M48.2074 16.5919C48.0859 17.0103 47.8776 17.5555 47.7313 17.7867L47.4495 17.8153C47.5617 17.5238 47.691 16.9979 47.746 16.643L48.2074 16.592" fill="#231F20"/>
<path d="M48.267 19.6217C48.3956 19.7098 48.6278 19.8003 48.8493 19.8003C49.1768 19.8003 49.3247 19.6395 49.3247 19.4384C49.3247 19.2257 49.2008 19.1113 48.8694 18.9899C48.4312 18.8368 48.2237 18.5932 48.2237 18.297C48.2237 17.9065 48.5427 17.584 49.0676 17.584C49.3161 17.584 49.5306 17.6574 49.67 17.7394L49.5577 18.0557C49.4617 17.9962 49.2844 17.9196 49.0622 17.9196C48.7966 17.9196 48.6487 18.0681 48.6487 18.2506C48.6487 18.4478 48.7966 18.5429 49.1156 18.6597C49.536 18.8221 49.7544 19.0378 49.7544 19.4036C49.7544 19.8297 49.4191 20.1344 48.8408 20.1344C48.576 20.1344 48.3282 20.0648 48.1594 19.9619L48.267 19.6217Z" fill="#231F20"/>
<path d="M51.4097 16.7199C51.6203 16.6905 51.9013 16.6588 52.2489 16.6588C52.6856 16.6588 53.0007 16.7601 53.2028 16.9449C53.3894 17.1004 53.4986 17.3517 53.4986 17.6502C53.4986 17.9626 53.408 18.2016 53.2408 18.3771C53.0093 18.6223 52.6276 18.7491 52.1994 18.7491C52.0709 18.7491 51.947 18.7429 51.8471 18.719V20.0792H51.4097V16.7199V16.7199ZM51.8471 18.3601C51.9408 18.3879 52.0631 18.3957 52.2087 18.3957C52.7437 18.3957 53.0604 18.1405 53.0604 17.668C53.0604 17.2218 52.7445 17.006 52.2598 17.006C52.0709 17.006 51.9214 17.0176 51.8471 17.04V18.3601Z" fill="#231F20"/>
<path d="M56.1579 18.8391C56.1579 19.74 55.5338 20.1344 54.9423 20.1344C54.2803 20.1344 53.7732 19.6503 53.7732 18.8824C53.7732 18.0603 54.3074 17.584 54.9833 17.584C55.6856 17.584 56.1579 18.0905 56.1579 18.8391ZM54.2207 18.8646C54.2207 19.4036 54.5304 19.8003 54.9632 19.8003C55.3836 19.8003 55.7065 19.4051 55.7065 18.8537C55.7065 18.44 55.4967 17.9196 54.9748 17.9196C54.4507 17.9196 54.2207 18.4006 54.2207 18.8646Z" fill="#231F20"/>
<path d="M56.6547 19.6217C56.7871 19.7098 57.0193 19.8003 57.2431 19.8003C57.5675 19.8003 57.7169 19.6395 57.7169 19.4384C57.7169 19.2257 57.5892 19.1113 57.2648 18.9899C56.8265 18.8368 56.6159 18.5932 56.6159 18.297C56.6159 17.9065 56.9349 17.584 57.4606 17.584C57.7053 17.584 57.926 17.6574 58.0591 17.7394L57.9445 18.0557C57.8509 17.9962 57.672 17.9196 57.4483 17.9196C57.1881 17.9196 57.0387 18.0681 57.0387 18.2506C57.0387 18.4478 57.1881 18.5429 57.5001 18.6597C57.9267 18.8221 58.1474 19.0378 58.1474 19.4036C58.1474 19.8297 57.8129 20.1344 57.2315 20.1344C56.9667 20.1344 56.7205 20.0648 56.5486 19.9619L56.6547 19.6217Z" fill="#231F20"/>
<path d="M58.6566 19.6217C58.7851 19.7098 59.0166 19.8003 59.235 19.8003C59.5617 19.8003 59.7173 19.6395 59.7173 19.4384C59.7173 19.2257 59.588 19.1113 59.2598 18.9899C58.8223 18.8368 58.614 18.5932 58.614 18.297C58.614 17.9065 58.9292 17.584 59.458 17.584C59.7049 17.584 59.9217 17.6574 60.058 17.7394L59.9434 18.0557C59.8482 17.9962 59.6747 17.9196 59.4502 17.9196C59.1792 17.9196 59.0368 18.0681 59.0368 18.2506C59.0368 18.4478 59.1792 18.5429 59.499 18.6597C59.9241 18.8221 60.1408 19.0378 60.1408 19.4036C60.1408 19.8297 59.8079 20.1344 59.2296 20.1344C58.9632 20.1344 58.7162 20.0648 58.5413 19.9619L58.6566 19.6217Z" fill="#231F20"/>
<path d="M61.2041 16.9577C61.2097 17.1085 61.0981 17.226 60.9246 17.226C60.7636 17.226 60.6567 17.1085 60.6567 16.9577C60.6567 16.7999 60.7698 16.6801 60.9347 16.6801C61.0981 16.6801 61.2041 16.7999 61.2041 16.9577ZM61.1608 20.0788H60.7156V17.6382H61.1608V20.0788Z" fill="#231F20"/>
<path d="M61.8935 16.5013H62.3302V18.0302H62.3434C62.4928 17.7595 62.777 17.584 63.1711 17.584C63.7773 17.584 64.2078 18.0867 64.2 18.829C64.2 19.7013 63.6488 20.1344 63.1068 20.1344C62.7506 20.1344 62.468 20.0029 62.2923 19.6766H62.2722L62.2528 20.0787H61.875C61.8781 19.9132 61.8936 19.6665 61.8936 19.4469V16.5013H61.8935ZM62.3302 19.1012L62.3519 19.2582C62.4339 19.566 62.6949 19.7802 63.0169 19.7802C63.4768 19.7802 63.7579 19.4052 63.7579 18.843C63.7579 18.3565 63.5055 17.9397 63.0332 17.9397C62.732 17.9397 62.4456 18.1439 62.355 18.481L62.3302 18.6597V19.1012Z" fill="#231F20"/>
<path d="M64.7612 20.0787H65.2026V16.5013H64.7612V20.0787Z" fill="#231F20"/>
<path d="M66.1996 18.9381C66.2058 19.5389 66.5906 19.7879 67.0343 19.7879C67.3502 19.7879 67.5445 19.7315 67.7094 19.6573L67.7861 19.9797C67.6266 20.0478 67.3587 20.1344 66.9708 20.1344C66.2205 20.1344 65.7761 19.6348 65.7761 18.9002C65.7761 18.164 66.2058 17.584 66.9174 17.584C67.7148 17.584 67.9277 18.2854 67.9277 18.7347C67.9277 18.8221 67.9154 18.8955 67.9115 18.9381H66.1997H66.1996ZM67.4957 18.6218C67.5042 18.3403 67.3819 17.901 66.8833 17.901C66.4373 17.901 66.2376 18.3155 66.2051 18.6218H67.4957Z" fill="#231F20"/>
<path d="M0 0.852326C0.661204 0.742528 1.52916 0.648193 2.63168 0.648193C3.98735 0.648193 4.97993 0.96367 5.61171 1.52968C6.19394 2.03305 6.5408 2.80474 6.5408 3.74885C6.5408 4.70998 6.25743 5.46543 5.72091 6.01674C4.99696 6.78843 3.81392 7.18123 2.47448 7.18123C2.06413 7.18123 1.6863 7.16496 1.37041 7.0869V11.3366H0V0.852326ZM1.37041 5.9688C1.67081 6.04767 2.0479 6.0786 2.50545 6.0786C4.16078 6.0786 5.17039 5.27676 5.17039 3.81226C5.17039 2.41116 4.17707 1.73536 2.6642 1.73536C2.06413 1.73536 1.60813 1.78175 1.37041 1.84515V5.9688Z" fill="#231F20"/>
<path d="M8.04419 0.1604H9.43089V4.91346H9.46186C9.68329 4.52066 10.0286 4.17425 10.4567 3.93841C10.8655 3.70181 11.3549 3.54407 11.8744 3.54407C12.8995 3.54407 14.5378 4.17425 14.5378 6.80324V11.3359H13.1511V6.96021C13.1511 5.73154 12.6935 4.69309 11.3851 4.69309C10.487 4.69309 9.77775 5.3225 9.52609 6.07795C9.44712 6.26739 9.43089 6.47307 9.43089 6.73906V11.3359H8.04419V0.1604Z" fill="#231F20"/>
<path d="M23.4803 7.4644C23.4803 10.2824 21.5268 11.512 19.6819 11.512C17.6177 11.512 16.0259 9.99935 16.0259 7.59045C16.0259 5.04004 17.6951 3.54443 19.808 3.54443C21.9999 3.54443 23.4803 5.13438 23.4803 7.4644ZM17.4288 7.54405C17.4288 9.2121 18.3896 10.4718 19.7445 10.4718C21.0693 10.4718 22.0619 9.22757 22.0619 7.51234C22.0619 6.2209 21.4153 4.583 19.7763 4.583C18.138 4.583 17.4288 6.09562 17.4288 7.54405Z" fill="#231F20"/>
<path d="M24.9302 3.71793V2.31684L26.2851 1.89233V3.71793H28.2718V4.77185H26.2851V8.88081C26.2851 9.8257 26.5545 10.3608 27.3257 10.3608C27.7043 10.3608 27.9249 10.3298 28.1302 10.2672L28.1928 11.3057C27.9249 11.4162 27.4999 11.5113 26.9641 11.5113C26.3169 11.5113 25.7973 11.2902 25.4668 10.9121C25.0719 10.5038 24.9302 9.8257 24.9302 8.92875V3.71793Z" fill="#231F20"/>
<path d="M36.4261 7.4644C36.4261 10.2824 34.4735 11.512 32.6277 11.512C30.5636 11.512 28.9709 9.99935 28.9709 7.59045C28.9709 5.04004 30.6418 3.54443 32.7547 3.54443C34.9458 3.54443 36.4261 5.13438 36.4261 7.4644ZM30.3739 7.54405C30.3739 9.2121 31.3355 10.4718 32.6904 10.4718C34.0159 10.4718 35.0077 9.22757 35.0077 7.51234C35.0077 6.2209 34.3612 4.583 32.7221 4.583C31.0838 4.583 30.3739 6.09562 30.3739 7.54405Z" fill="#231F20"/>
<path d="M37.7722 9.92124C38.1825 10.188 38.9072 10.4718 39.601 10.4718C40.6106 10.4718 41.0821 9.96764 41.0821 9.33815C41.0821 8.67696 40.688 8.31505 39.6637 7.9369C38.2925 7.44893 37.6468 6.6934 37.6468 5.7801C37.6468 4.5513 38.6393 3.54443 40.2792 3.54443C41.0511 3.54443 41.7286 3.76483 42.1536 4.01616L41.8075 5.02457C41.5079 4.83588 40.9559 4.583 40.2474 4.583C39.4275 4.583 38.9699 5.0555 38.9699 5.62312C38.9699 6.2526 39.4275 6.53564 40.4201 6.91379C41.7441 7.418 42.4223 8.07919 42.4223 9.2121C42.4223 10.5507 41.3825 11.512 39.57 11.512C38.733 11.512 37.9611 11.2908 37.4246 10.976L37.7722 9.92124Z" fill="#231F20"/>
<path d="M43.9883 0.1604H45.3749V4.91346H45.4067C45.6274 4.52066 45.9735 4.17425 46.4001 3.93841C46.8097 3.70181 47.2966 3.54407 47.8185 3.54407C48.8436 3.54407 50.4827 4.17425 50.4827 6.80324V11.3359H49.0952V6.96021C49.0952 5.73154 48.6376 4.69309 47.3292 4.69309C46.431 4.69309 45.7218 5.3225 45.4694 6.07795C45.3912 6.26739 45.375 6.47307 45.375 6.73906V11.3359H43.9883V0.1604" fill="#231F20"/>
<path d="M59.4245 7.4644C59.4245 10.2824 57.4695 11.512 55.626 11.512C53.5611 11.512 51.9685 9.99935 51.9685 7.59045C51.9685 5.04004 53.6393 3.54443 55.7522 3.54443C57.9433 3.54443 59.4245 5.13438 59.4245 7.4644ZM53.3722 7.54405C53.3722 9.2121 54.333 10.4718 55.688 10.4718C57.0127 10.4718 58.006 9.22757 58.006 7.51234C58.006 6.2209 57.3596 4.583 55.7197 4.583C54.0806 4.583 53.3722 6.09562 53.3722 7.54405Z" fill="#231F20"/>
<path d="M60.9585 6.20513C60.9585 5.22853 60.9275 4.44216 60.895 3.71764H62.1408L62.2035 5.0244H62.236C62.8035 4.09575 63.7016 3.54443 64.9466 3.54443C66.7901 3.54443 68.1783 5.1025 68.1783 7.41755C68.1783 10.1563 66.5075 11.511 64.7105 11.511C63.7017 11.511 62.819 11.0695 62.3622 10.3141H62.3304V14.454H60.9585V6.20513H60.9585ZM62.3305 8.23563C62.3305 8.44054 62.3622 8.62921 62.3924 8.80319C62.6456 9.76277 63.4802 10.4239 64.4736 10.4239C65.94 10.4239 66.7901 9.22692 66.7901 7.48019C66.7901 5.95305 65.9864 4.64629 64.5216 4.64629C63.5754 4.64629 62.6928 5.32287 62.4249 6.36209C62.3777 6.5353 62.3305 6.73943 62.3305 6.92965V8.23563Z" fill="#231F20"/>
<path d="M69.1444 17.584V17.7456H68.8262V18.5878H68.6241V17.7456H68.302V17.584H69.1444ZM70.3158 18.5878L70.2802 17.9985C70.2746 17.9165 70.2746 17.826 70.274 17.7116H70.2601C70.2345 17.8021 70.2035 17.9165 70.1772 18.0139L69.9953 18.5738H69.7824L69.6012 18.0031C69.5849 17.9165 69.5547 17.8021 69.53 17.7116H69.5244C69.5244 17.8059 69.5188 17.9065 69.5188 17.9985L69.4785 18.5878H69.2904L69.3492 17.584H69.6613L69.8362 18.075C69.8548 18.157 69.8734 18.2251 69.8982 18.3271H69.9025C69.9327 18.2405 69.949 18.157 69.9738 18.075L70.1495 17.584H70.4383L70.5173 18.5878H70.3152" fill="#231F20"/>
<path d="M69.1677 3.54541C69.7352 3.54541 70.1828 3.99935 70.1828 4.56155C70.1828 5.13149 69.7352 5.58543 69.1631 5.58543C68.5956 5.58543 68.1372 5.13149 68.1372 4.56155C68.1372 3.99935 68.5956 3.54541 69.1631 3.54541H69.1674H69.1677ZM69.1634 3.71786C68.7159 3.71786 68.3512 4.09292 68.3512 4.56697C68.3512 5.03715 68.7159 5.41298 69.168 5.41298C69.621 5.41855 69.981 5.03715 69.981 4.56697C69.981 4.09292 69.621 3.71786 69.168 3.71786H69.1637H69.1634ZM68.9814 5.15469H68.7724V4.02178C68.8653 4.00866 68.9652 3.9893 69.1162 3.9893C69.2981 3.9893 69.4127 4.02567 69.4847 4.08132C69.5482 4.13007 69.5838 4.20815 69.5838 4.31564C69.5838 4.4618 69.4917 4.55614 69.3662 4.58785V4.59787C69.4653 4.61488 69.5273 4.70536 69.5528 4.87394C69.5807 5.04949 69.6001 5.11831 69.621 5.15466H69.4127C69.3817 5.11828 69.36 5.01469 69.3399 4.86544C69.3144 4.72933 69.2362 4.67443 69.0953 4.67443H68.9814V5.15466V5.15469ZM68.9814 4.51516H69.1015C69.2517 4.51516 69.3771 4.46721 69.3771 4.33497C69.3771 4.23444 69.3035 4.14319 69.1115 4.14319L68.9814 4.14751V4.51484" fill="#231F20"/>
</svg>
