<svg width="70" height="21" viewBox="0 0 70 21" fill="none" xmlns="http://www.w3.org/2000/svg">
<path fill-rule="evenodd" clip-rule="evenodd" d="M49.285 8.35472C47.6826 8.35472 46.7748 9.76274 46.7748 9.76274H46.7403L46.877 8.4918H44.7803C44.6775 9.35038 44.4883 10.6546 44.299 11.6339L42.6485 20.3071H45.022L45.6744 16.8061H45.7258C45.7258 16.8061 46.2126 17.1174 47.1188 17.1174C49.9024 17.1174 51.7235 14.2664 51.7235 11.3827C51.7235 9.78513 51.018 8.36018 49.2789 8.36018L49.285 8.35472ZM40.0011 8.35472C37.1475 8.35472 35.2564 10.9299 35.2564 13.7973C35.2564 15.6346 36.3906 17.1109 38.5223 17.1109C41.3251 17.1109 43.2157 14.604 43.2157 11.6656C43.2157 9.967 42.2187 8.35035 40.0011 8.35035V8.35472ZM24.2017 11.8917C23.6001 11.5656 23.2906 11.2909 23.2906 10.913C23.2906 10.4323 23.7204 10.1265 24.3909 10.1265C25.1719 10.1265 25.8691 10.4542 25.8691 10.4542L26.4193 8.77199C26.4193 8.77199 25.9107 8.37711 24.4232 8.37711C22.3505 8.37711 20.9122 9.56229 20.9122 11.2281C20.9122 12.1719 21.5821 12.8928 22.4763 13.4073C23.1982 13.8197 23.4563 14.1119 23.4563 14.5412C23.4563 14.9874 23.0954 15.3478 22.4243 15.3478C21.4257 15.3478 20.4813 14.8328 20.4813 14.8328L19.901 16.5106C19.901 16.5106 20.7733 17.095 22.2395 17.095C24.3723 17.095 25.9014 16.048 25.9014 14.1594C25.9014 13.1468 25.1281 12.4253 24.1995 11.8928L24.2017 11.8917ZM51.7951 16.9394H54.1675L55.783 8.54369H53.3931L51.7951 16.9394ZM61.8178 8.52621H60.1663L60.2538 8.13297C60.3905 7.33011 60.8717 6.60916 61.6631 6.60916C62.0853 6.60916 62.4194 6.72932 62.4194 6.72932L62.8843 4.87508C62.8843 4.87508 62.4708 4.66918 61.5936 4.66918C60.7514 4.66918 59.9092 4.90949 59.2732 5.45948C58.4655 6.14547 58.0865 7.14168 57.8978 8.1368L57.8267 8.53222H56.7275L56.3829 10.3182H57.4822L56.2298 16.9454H58.5994L59.8545 10.3176H61.4875L61.8135 8.53167L61.8178 8.52621ZM47.0154 15.3255C46.3996 15.3255 46.0354 14.9814 46.0354 14.9814L46.4308 12.7672C46.7097 11.2909 47.4808 10.3122 48.3066 10.3122C49.0285 10.3122 49.2527 10.984 49.2527 11.6175C49.2527 13.1468 48.3388 15.3255 47.0154 15.3255ZM38.8319 15.291C38.0241 15.291 37.6801 14.6045 37.6801 13.7454C37.6801 12.3893 38.3856 10.1745 39.6741 10.1745C40.5163 10.1745 40.7919 10.8955 40.7919 11.5946C40.7919 13.0529 40.0864 15.2867 38.8319 15.2867V15.291ZM67.5251 8.54369C67.5251 8.54369 66.0419 12.2757 65.3758 14.3123H65.3419C65.2982 13.6569 64.7622 8.54369 64.7622 8.54369H62.2685L63.6958 16.2528C63.7286 16.4243 63.7122 16.527 63.645 16.6477C63.3699 17.183 62.9056 17.6964 62.3543 18.0732C61.9086 18.4009 61.4099 18.6085 61.0145 18.745L61.668 20.7549C62.1492 20.6511 63.1446 20.2579 63.9868 19.466C65.0696 18.4555 66.0687 16.8935 67.0985 14.7634L70.0008 8.54751H67.5262L67.5251 8.54369ZM32.6942 8.35472C31.6453 8.35472 30.8206 8.85282 30.184 9.60817L30.1501 9.59069L31.0634 4.83521H28.6899L26.3876 16.9394H28.761L29.554 12.8016C29.8657 11.2341 30.6724 10.2729 31.4298 10.2729C31.9614 10.2729 32.1681 10.6333 32.1681 11.1478C32.1681 11.4739 32.1331 11.8688 32.0642 12.1965L31.1673 16.9361H33.5408L34.4678 12.0424C34.5717 11.528 34.6406 10.9102 34.6406 10.4984C34.6406 9.15867 33.9351 8.35199 32.6991 8.35199L32.6942 8.35472ZM55.1131 4.95537C54.3567 4.95537 53.7546 5.55615 53.7546 6.32843C53.7546 7.03299 54.202 7.51362 54.8724 7.51362H54.9063C55.6446 7.51362 56.279 7.01551 56.2954 6.14001C56.2954 5.45293 55.8306 4.95482 55.1087 4.95482L55.1131 4.95537ZM9.08753 7.74847L8.34377 9.95826C8.34377 9.95826 7.69134 9.6109 6.89235 9.6109C5.72093 9.6109 5.66186 10.345 5.66186 10.5301C5.66186 11.5394 8.29619 11.9261 8.29619 14.2905C8.29619 16.1507 7.11493 17.349 5.52241 17.349C3.61051 17.349 2.63323 16.1605 2.63323 16.1605L3.14512 14.4674C3.14512 14.4674 4.15138 15.3276 4.99904 15.3276C5.55139 15.3276 5.78108 14.8923 5.78108 14.5739C5.78108 13.2577 3.6209 13.1976 3.6209 11.0348C3.6209 9.21384 4.92795 7.4519 7.57157 7.4519C8.58877 7.4519 9.0919 7.74301 9.0919 7.74301L9.08753 7.74847ZM7.909 1.45552C8.01728 1.45552 8.12666 1.49212 8.23166 1.56476C7.42446 1.94325 6.55984 2.8985 6.19453 4.80626L4.65615 5.28143C5.08436 3.82698 6.09992 1.45552 7.909 1.45552ZM8.65713 2.16281C8.81245 2.55059 8.91307 3.10604 8.91307 3.85593V3.96516L6.96618 4.56759C7.34134 3.12352 8.04298 2.42552 8.65713 2.16281ZM10.5149 3.47034L9.57261 3.76144V3.55936C9.57261 2.93673 9.48675 2.43644 9.34839 2.03938C9.90512 2.10929 10.2764 2.74229 10.5149 3.47034ZM13.2947 4.30215C13.2947 4.30215 14.7959 4.41302 14.8664 4.41903C14.9375 4.42995 15.0234 4.47911 15.0371 4.57742C15.0502 4.67573 17.1682 18.9799 17.1682 18.9799L11.1345 20.2792L0 18.1961C0 18.1961 1.429 7.1597 1.48314 6.77028C1.55424 6.25689 1.57174 6.23941 2.11752 6.06846L3.88012 5.52229C4.25747 3.92693 5.46061 0.781006 7.979 0.781006C8.30713 0.781006 8.6883 0.957418 8.9962 1.36322C9.02628 1.36158 9.05636 1.36049 9.08698 1.36049C10.1676 1.36049 10.7823 2.28351 11.1301 3.283L11.7137 3.10277C11.7957 3.08092 12.0199 3.04269 12.1348 3.15738L12.9611 3.97609L13.2947 4.30597V4.30215Z" fill="#333333"/>
</svg>
