<svg width="82" height="21" viewBox="0 0 82 21" fill="none" xmlns="http://www.w3.org/2000/svg">
<path d="M21.3416 7.79419H29.5643V9.33064H26.3312V17.9678H24.5533V9.33064H21.3345V7.79419H21.3416ZM29.213 10.6014H30.7328V12.023H30.7615C30.8117 11.822 30.9049 11.6281 31.0411 11.4415C31.1773 11.2548 31.3422 11.0753 31.5357 10.9245C31.7293 10.7666 31.9444 10.6445 32.1809 10.544C32.4175 10.4507 32.6612 10.4004 32.905 10.4004C33.0914 10.4004 33.2276 10.4076 33.2993 10.4148C33.371 10.422 33.4426 10.4363 33.5215 10.4435V12.0087C33.4068 11.9871 33.2921 11.9728 33.1702 11.9584C33.0484 11.9441 32.9337 11.9369 32.819 11.9369C32.5465 11.9369 32.2885 11.9943 32.0447 12.102C31.801 12.2097 31.5931 12.3748 31.4139 12.583C31.2346 12.7984 31.0913 13.0569 30.9837 13.3728C30.8762 13.6887 30.826 14.0477 30.826 14.4569V17.9606H29.2059V10.6014H29.213ZM40.9699 17.9678H39.3785V16.9411H39.3498C39.1491 17.3145 38.8551 17.6088 38.4608 17.8314C38.0666 18.054 37.6651 18.1688 37.2565 18.1688C36.2887 18.1688 35.5861 17.9319 35.156 17.4509C34.7259 16.9698 34.5108 16.2447 34.5108 15.2754V10.6014H36.131V15.1175C36.131 15.7636 36.2528 16.2231 36.5037 16.4888C36.7475 16.7544 37.0988 16.8909 37.5432 16.8909C37.8873 16.8909 38.1669 16.8406 38.3963 16.7329C38.6257 16.6252 38.8121 16.4888 38.9483 16.3093C39.0917 16.137 39.1921 15.9216 39.2566 15.6775C39.3211 15.4334 39.3498 15.1677 39.3498 14.8805V10.6086H40.9699V17.9678ZM43.7299 15.6057C43.7801 16.0796 43.9593 16.4098 44.2676 16.6037C44.583 16.7903 44.9558 16.8909 45.3931 16.8909C45.5437 16.8909 45.7157 16.8765 45.9093 16.855C46.1028 16.8334 46.2892 16.7832 46.4541 16.7185C46.6262 16.6539 46.7624 16.5534 46.8771 16.4242C46.9846 16.2949 47.0348 16.1298 47.0276 15.9216C47.0204 15.7134 46.9416 15.5411 46.7982 15.4118C46.6548 15.2754 46.4756 15.1749 46.2534 15.0888C46.0311 15.0098 45.7802 14.938 45.4935 14.8805C45.2067 14.8231 44.92 14.7585 44.626 14.6939C44.325 14.6293 44.031 14.5431 43.7514 14.4498C43.4719 14.3564 43.221 14.2272 42.9987 14.0621C42.7765 13.9041 42.5973 13.6959 42.4682 13.4446C42.332 13.1933 42.2675 12.8846 42.2675 12.5112C42.2675 12.1092 42.3679 11.7789 42.5614 11.5061C42.755 11.2333 43.0059 11.0179 43.2998 10.8527C43.6009 10.6876 43.9307 10.5727 44.2963 10.5009C44.6619 10.4363 45.0132 10.4004 45.3429 10.4004C45.7229 10.4004 46.0885 10.4435 46.4326 10.5225C46.7767 10.6015 47.0921 10.7307 47.3717 10.9174C47.6513 11.0968 47.8807 11.3338 48.0671 11.621C48.2535 11.9082 48.3682 12.26 48.4184 12.6692H46.7265C46.6477 12.2815 46.4756 12.0158 46.196 11.8866C45.9164 11.7502 45.5938 11.6856 45.2354 11.6856C45.1207 11.6856 44.9845 11.6928 44.8268 11.7143C44.6691 11.7358 44.5257 11.7717 44.3823 11.822C44.2461 11.8723 44.1314 11.9512 44.031 12.0517C43.9378 12.1523 43.8877 12.2815 43.8877 12.4466C43.8877 12.6477 43.9593 12.8056 44.0955 12.9277C44.2318 13.0497 44.411 13.1502 44.6332 13.2364C44.8554 13.3154 45.1064 13.3872 45.3931 13.4446C45.6799 13.502 45.9738 13.5667 46.2749 13.6313C46.5688 13.6959 46.8556 13.7821 47.1423 13.8754C47.4291 13.9687 47.68 14.098 47.9022 14.2631C48.1244 14.4282 48.3037 14.6293 48.4399 14.8734C48.5761 15.1175 48.6478 15.4262 48.6478 15.7852C48.6478 16.2231 48.5474 16.5893 48.3467 16.898C48.1459 17.1996 47.8879 17.4509 47.5724 17.6375C47.257 17.8242 46.8986 17.9678 46.5115 18.054C46.1243 18.1401 45.7372 18.1832 45.3573 18.1832C44.8913 18.1832 44.4612 18.1329 44.0669 18.0253C43.6726 17.9176 43.3285 17.7596 43.0417 17.5514C42.755 17.336 42.5256 17.0704 42.3607 16.7544C42.1958 16.4385 42.1098 16.058 42.0954 15.6201H43.7299V15.6057V15.6057ZM49.0779 10.6014H50.3038V8.3901H51.9239V10.6014H53.3864V11.8148H51.9239V15.7493C51.9239 15.9216 51.9311 16.0652 51.9454 16.1944C51.9598 16.3165 51.9956 16.4242 52.0458 16.5103C52.096 16.5965 52.1748 16.6611 52.2824 16.7042C52.3899 16.7473 52.5261 16.7688 52.7125 16.7688C52.8272 16.7688 52.9419 16.7688 53.0566 16.7616C53.1713 16.7544 53.286 16.7401 53.4007 16.7114V17.9678C53.2215 17.9894 53.0423 18.0037 52.8774 18.0253C52.7053 18.0468 52.5333 18.054 52.3541 18.054C51.9239 18.054 51.5798 18.0109 51.3217 17.9319C51.0637 17.8529 50.8558 17.7309 50.7124 17.5729C50.5618 17.415 50.4687 17.2211 50.4113 16.9842C50.3611 16.7473 50.3253 16.4744 50.3181 16.1729V11.8292H49.0922V10.6014H49.0779V10.6014ZM54.5334 10.6014H56.0675V11.5994H56.0962C56.3256 11.1686 56.641 10.8671 57.0497 10.6804C57.4583 10.4938 57.8956 10.4004 58.3759 10.4004C58.9566 10.4004 59.4584 10.5009 59.8885 10.7091C60.3186 10.9102 60.6771 11.1902 60.9638 11.5492C61.2506 11.9082 61.4585 12.3246 61.6019 12.7984C61.7452 13.2723 61.8169 13.7821 61.8169 14.3205C61.8169 14.8159 61.7524 15.297 61.6234 15.7565C61.4943 16.2231 61.3008 16.6324 61.0427 16.9914C60.7846 17.3504 60.4549 17.6304 60.0534 17.8458C59.6519 18.0612 59.186 18.1688 58.6411 18.1688C58.4046 18.1688 58.168 18.1473 57.9314 18.1042C57.6948 18.0612 57.4654 17.9894 57.2504 17.896C57.0353 17.8027 56.8274 17.6806 56.6482 17.5299C56.4618 17.3791 56.3113 17.2068 56.1822 17.0129H56.1535V20.6889H54.5334V10.6014V10.6014ZM60.1968 14.2918C60.1968 13.9615 60.1538 13.6385 60.0677 13.3226C59.9817 13.0066 59.8527 12.7338 59.6806 12.4897C59.5086 12.2456 59.2935 12.0517 59.0426 11.9082C58.7845 11.7646 58.4906 11.6856 58.1608 11.6856C57.4798 11.6856 56.9636 11.9225 56.6195 12.3964C56.2754 12.8702 56.1034 13.502 56.1034 14.2918C56.1034 14.6652 56.1464 15.0098 56.2396 15.3257C56.3328 15.6416 56.4618 15.9144 56.6482 16.1442C56.8274 16.3739 57.0425 16.5534 57.2934 16.6826C57.5443 16.8191 57.8382 16.8837 58.168 16.8837C58.5408 16.8837 58.849 16.8047 59.1071 16.6539C59.3652 16.5032 59.5731 16.3021 59.738 16.0652C59.9028 15.8211 60.0247 15.5483 60.0964 15.2395C60.1609 14.9308 60.1968 14.6149 60.1968 14.2918V14.2918ZM63.0571 7.79419H64.6773V9.33064H63.0571V7.79419ZM63.0571 10.6014H64.6773V17.9678H63.0571V10.6014ZM66.1254 7.79419H67.7456V17.9678H66.1254V7.79419ZM72.7136 18.1688C72.1257 18.1688 71.6024 18.0683 71.1436 17.8745C70.6848 17.6806 70.2977 17.4078 69.9751 17.0704C69.6596 16.7257 69.4159 16.3165 69.251 15.8426C69.0861 15.3688 69.0001 14.8446 69.0001 14.2775C69.0001 13.7174 69.0861 13.2005 69.251 12.7266C69.4159 12.2528 69.6596 11.8435 69.9751 11.4989C70.2905 11.1543 70.6848 10.8886 71.1436 10.6948C71.6024 10.5009 72.1257 10.4004 72.7136 10.4004C73.3014 10.4004 73.8247 10.5009 74.2835 10.6948C74.7424 10.8886 75.1295 11.1615 75.4521 11.4989C75.7675 11.8435 76.0112 12.2528 76.1761 12.7266C76.341 13.2005 76.427 13.7174 76.427 14.2775C76.427 14.8446 76.341 15.3688 76.1761 15.8426C76.0112 16.3165 75.7675 16.7257 75.4521 17.0704C75.1366 17.415 74.7424 17.6806 74.2835 17.8745C73.8247 18.0683 73.3014 18.1688 72.7136 18.1688V18.1688ZM72.7136 16.8837C73.072 16.8837 73.3874 16.8047 73.6527 16.6539C73.9179 16.5032 74.133 16.3021 74.3051 16.058C74.4771 15.8139 74.599 15.5339 74.685 15.2252C74.7639 14.9164 74.8069 14.6005 74.8069 14.2775C74.8069 13.9615 74.7639 13.6528 74.685 13.3369C74.6062 13.021 74.4771 12.7482 74.3051 12.5041C74.133 12.26 73.9179 12.0661 73.6527 11.9153C73.3874 11.7646 73.072 11.6856 72.7136 11.6856C72.3551 11.6856 72.0397 11.7646 71.7745 11.9153C71.5092 12.0661 71.2941 12.2671 71.1221 12.5041C70.95 12.7482 70.8282 13.021 70.7421 13.3369C70.6633 13.6528 70.6203 13.9615 70.6203 14.2775C70.6203 14.6005 70.6633 14.9164 70.7421 15.2252C70.821 15.5339 70.95 15.8139 71.1221 16.058C71.2941 16.3021 71.5092 16.5032 71.7745 16.6539C72.0397 16.8119 72.3551 16.8837 72.7136 16.8837V16.8837ZM76.9002 10.6014H78.1261V8.3901H79.7462V10.6014H81.2087V11.8148H79.7462V15.7493C79.7462 15.9216 79.7534 16.0652 79.7677 16.1944C79.7821 16.3165 79.8179 16.4242 79.8681 16.5103C79.9183 16.5965 79.9971 16.6611 80.1047 16.7042C80.2122 16.7473 80.3484 16.7688 80.5348 16.7688C80.6495 16.7688 80.7642 16.7688 80.8789 16.7616C80.9936 16.7544 81.1083 16.7401 81.223 16.7114V17.9678C81.0438 17.9894 80.8645 18.0037 80.6997 18.0253C80.5276 18.0468 80.3556 18.054 80.1763 18.054C79.7462 18.054 79.4021 18.0109 79.144 17.9319C78.886 17.8529 78.6781 17.7309 78.5347 17.5729C78.3841 17.415 78.2909 17.2211 78.2336 16.9842C78.1834 16.7473 78.1476 16.4744 78.1404 16.1729V11.8292H76.9145V10.6014H76.9002V10.6014Z" fill="#333333"/>
<path d="M19.4491 7.79353H12.0221L9.72812 0.714355L7.42692 7.79353L0 7.78635L6.01466 12.166L3.71346 19.238L9.72812 14.8655L15.7356 19.238L13.4416 12.166L19.4491 7.79353Z" fill="#333333"/>
<path d="M13.9576 13.7673L13.4415 12.166L9.72803 14.8659L13.9576 13.7673Z" fill="#333333"/>
</svg>
