<svg width="20" height="25" viewBox="0 0 20 25" fill="none" xmlns="http://www.w3.org/2000/svg">
<path d="M5.28503 14.9639C5.00799 15.1548 3.54822 15.6585 3.54822 13.9566V8.44259H1.80607V13.8823C1.80607 17.8535 6.07885 16.5916 7.02184 15.9501V8.44259H5.28503V14.9639ZM0 2.865V14.5769C0 20.075 3.99041 21.7451 10 24.3377C15.9883 21.7451 20 20.0856 20 14.5769V2.865C13.8039 -0.400973 4.98668 0.235255 0 2.865ZM19.0783 14.5769C19.0783 19.1683 16.244 20.5998 10 23.3409C3.74001 20.5945 0.916356 19.1683 0.916356 14.5769V7.87529C6.36654 2.90211 13.2552 2.57339 19.0783 3.11419V14.5769ZM7.91156 8.88265V20.1651H9.6537V16.5227C10.9536 16.9097 13.4736 16.3848 13.4736 12.3607C13.4736 7.19665 9.17421 8.07146 7.91156 8.88265ZM9.6537 15.1018V9.78397C10.1012 9.56129 11.6995 9.11063 11.6995 12.3978C11.6995 15.9978 9.76026 15.1442 9.6537 15.1018ZM13.8679 10.5209C13.8732 13.0287 16.6169 12.7742 16.6489 14.2535C16.6809 15.4994 15.0293 15.4729 13.9425 14.5133V16.1091C15.8711 17.249 18.3058 16.5386 18.3751 14.333C18.4656 11.6025 15.4928 11.8623 15.5301 10.452C15.5621 9.37573 17.1604 9.36512 18.114 10.3354V8.82963C16.5956 7.66321 13.8572 8.34186 13.8679 10.5209Z" fill="#333333"/>
</svg>
